<?xml version="1.0" encoding="UTF-8"?>
<!DOCTYPE svg PUBLIC "-//W3C//DTD SVG 1.1//EN" "http://www.w3.org/Graphics/SVG/1.1/DTD/svg11.dtd">
<svg xmlns="http://www.w3.org/2000/svg" version="1.1" width="462px" height="461px" style="shape-rendering:geometricPrecision; text-rendering:geometricPrecision; image-rendering:optimizeQuality; fill-rule:evenodd; clip-rule:evenodd" xmlns:xlink="http://www.w3.org/1999/xlink">
<g><path style="opacity:1" fill="#fefefe" d="M -0.5,-0.5 C 153.5,-0.5 307.5,-0.5 461.5,-0.5C 461.5,16.5 461.5,33.5 461.5,50.5C 412.833,50.5 364.167,50.5 315.5,50.5C 311.058,45.7164 306.058,41.7164 300.5,38.5C 296.999,34.3375 292.665,31.3375 287.5,29.5C 272.141,20.0422 255.474,13.7088 237.5,10.5C 218.81,7.68884 200.144,7.8555 181.5,11C 176.524,11.903 171.858,13.403 167.5,15.5C 149.441,20.1936 133.441,28.527 119.5,40.5C 114.656,43.0979 110.323,46.4312 106.5,50.5C 70.9886,50.5427 35.322,50.5427 -0.5,50.5C -0.5,33.5 -0.5,16.5 -0.5,-0.5 Z"/></g>
<g><path style="opacity:1" fill="#f9f9fa" d="M 236.5,11.5 C 254.256,15.087 271.256,21.087 287.5,29.5C 291.553,32.8827 295.886,35.8827 300.5,38.5C 312.237,48.9015 322.904,60.2348 332.5,72.5C 337.347,80.8612 341.681,89.5279 345.5,98.5C 344.778,98.9175 344.278,99.5842 344,100.5C 342.527,96.2211 340.527,92.2211 338,88.5C 337.346,87.3044 336.846,87.3044 336.5,88.5C 343.494,100.979 348.827,114.146 352.5,128C 352.836,129.03 353.503,129.53 354.5,129.5C 354.5,131.167 354.5,132.833 354.5,134.5C 353.5,134.5 352.5,134.5 351.5,134.5C 348.252,122.339 342.585,111.339 334.5,101.5C 326.149,89.309 315.816,79.4757 303.5,72C 315.069,80.7343 325.069,90.9009 333.5,102.5C 338.368,109.598 342.201,117.264 345,125.5C 346.266,129.395 346.766,133.395 346.5,137.5C 345.609,138.11 344.609,138.443 343.5,138.5C 339.416,135.261 335.416,131.761 331.5,128C 330.833,127.333 330.167,127.333 329.5,128C 333.747,131.742 337.414,135.908 340.5,140.5C 338.54,142.156 336.54,143.823 334.5,145.5C 323.046,141.773 312.379,136.44 302.5,129.5C 301.167,130.167 301.167,130.833 302.5,131.5C 311.547,137.024 320.88,142.024 330.5,146.5C 331.298,146.957 331.631,147.624 331.5,148.5C 327.82,152.183 324.486,156.183 321.5,160.5C 315.288,160.363 309.622,158.696 304.5,155.5C 300.182,141.555 295.349,127.889 290,114.5C 290.837,116.007 292.004,116.507 293.5,116C 290.973,113.473 288.473,110.973 286,108.5C 280.744,98.9839 274.744,89.9839 268,81.5C 264.239,77.23 260.072,73.5633 255.5,70.5C 277.875,93.2296 293.042,120.23 301,151.5C 301.608,153.066 302.442,154.4 303.5,155.5C 307.655,172.447 311.322,189.447 314.5,206.5C 316.374,222.249 318.708,237.915 321.5,253.5C 321.073,259.114 321.74,264.447 323.5,269.5C 323.835,281.857 324.501,294.191 325.5,306.5C 325.748,330.182 325.415,353.849 324.5,377.5C 323.316,385.455 322.316,393.455 321.5,401.5C 320.262,403.214 319.595,405.214 319.5,407.5C 319.5,407.833 319.5,408.167 319.5,408.5C 317.501,407.143 316.335,407.81 316,410.5C 316.467,402.813 317.467,395.147 319,387.5C 319.667,380.833 319.667,374.167 319,367.5C 317.86,379.02 316.027,390.353 313.5,401.5C 307.879,419.127 297.879,433.793 283.5,445.5C 275.284,450.961 266.284,454.127 256.5,455C 261.001,452.657 264.667,449.49 267.5,445.5C 271.928,438.981 275.594,431.981 278.5,424.5C 280.474,422.572 281.974,420.239 283,417.5C 284.024,412.071 285.357,406.738 287,401.5C 287.667,396.833 287.667,392.167 287,387.5C 284.982,395.906 282.816,404.239 280.5,412.5C 277.07,419.032 272.903,425.032 268,430.5C 263.361,434.226 258.528,437.56 253.5,440.5C 252.833,440.5 252.167,440.5 251.5,440.5C 262.674,428.679 269.674,414.679 272.5,398.5C 274.204,390.909 275.537,383.243 276.5,375.5C 276.724,371.821 277.058,368.154 277.5,364.5C 278.473,362.052 278.806,359.385 278.5,356.5C 279.479,353.375 279.813,350.042 279.5,346.5C 279.5,346.167 279.5,345.833 279.5,345.5C 280.833,329.5 280.833,313.5 279.5,297.5C 279.5,294.167 279.5,290.833 279.5,287.5C 279.176,271.933 277.843,256.6 275.5,241.5C 275.167,236.833 274.833,232.167 274.5,227.5C 274.238,226.022 274.571,224.689 275.5,223.5C 277.335,223.166 279.002,223.166 280.5,223.5C 282.672,228.189 284.672,232.856 286.5,237.5C 286.274,239.189 285.941,240.855 285.5,242.5C 289.449,277.358 291.449,312.358 291.5,347.5C 293.368,307.175 291.702,267.008 286.5,227C 289.56,224.285 292.894,221.785 296.5,219.5C 293.628,218.042 290.628,216.875 287.5,216C 285.785,215.223 284.785,213.89 284.5,212C 281.682,194.235 277.849,176.735 273,159.5C 276.002,177.513 279.169,195.513 282.5,213.5C 278.864,212.674 275.197,212.008 271.5,211.5C 267.978,186.391 262.478,161.724 255,137.5C 249.969,121.755 242.135,107.755 231.5,95.5C 236.896,103.946 242.062,112.613 247,121.5C 259.172,154.214 267.338,187.881 271.5,222.5C 268.167,223.167 264.833,223.833 261.5,224.5C 261.5,223.5 261.5,222.5 261.5,221.5C 261.5,217.833 261.5,214.167 261.5,210.5C 261.666,203.159 261.5,195.826 261,188.5C 260.594,184.728 259.761,181.061 258.5,177.5C 257.614,178.325 257.281,179.325 257.5,180.5C 241.576,180.378 225.909,182.378 210.5,186.5C 210.421,185.07 210.754,183.736 211.5,182.5C 210.606,182.483 209.606,182.149 208.5,181.5C 206.12,168.86 202.62,156.526 198,144.5C 196.935,142.604 196.102,142.437 195.5,144C 199.931,159.428 203.597,174.928 206.5,190.5C 207.723,206.174 207.723,221.84 206.5,237.5C 200.876,238.989 195.209,240.323 189.5,241.5C 189.091,229.033 187.757,216.699 185.5,204.5C 185.751,217.496 185.418,230.496 184.5,243.5C 174.895,245.565 165.562,248.231 156.5,251.5C 155.833,251.5 155.167,251.5 154.5,251.5C 152.597,251.796 150.93,252.463 149.5,253.5C 148.833,253.5 148.167,253.5 147.5,253.5C 147.573,251.973 146.906,250.973 145.5,250.5C 144.89,248.566 143.89,246.899 142.5,245.5C 142.34,243.847 141.674,242.514 140.5,241.5C 136.48,231.757 132.48,222.09 128.5,212.5C 128.5,212.167 128.5,211.833 128.5,211.5C 122.401,192.102 117.401,172.436 113.5,152.5C 112.444,164.17 112.611,175.837 114,187.5C 115.633,197.969 117.466,208.302 119.5,218.5C 120.526,226.666 122.193,234.666 124.5,242.5C 124.631,243.239 124.464,243.906 124,244.5C 123.333,243.167 122.667,243.167 122,244.5C 120.587,241.339 118.92,238.339 117,235.5C 117.728,240.29 119.561,244.624 122.5,248.5C 123.846,250.537 125.18,252.537 126.5,254.5C 127.038,256.117 127.371,257.784 127.5,259.5C 123.418,260.376 119.751,262.043 116.5,264.5C 114.956,264.703 113.622,265.37 112.5,266.5C 111.145,265.812 110.145,264.812 109.5,263.5C 106.5,259.5 103.5,255.5 100.5,251.5C 95.6015,244.717 91.4349,237.384 88,229.5C 87.8333,230 87.6667,230.5 87.5,231C 91.4967,240.509 95.1633,250.009 98.5,259.5C 102.674,270.177 108.174,280.177 115,289.5C 116.873,291.709 119.04,293.542 121.5,295C 120.181,295.195 118.847,295.028 117.5,294.5C 115.602,292.04 113.269,291.04 110.5,291.5C 112.854,294.521 115.521,297.188 118.5,299.5C 118.5,300.167 118.5,300.833 118.5,301.5C 112.299,304.068 106.133,306.734 100,309.5C 90.0949,302.765 81.2615,294.765 73.5,285.5C 75.0102,295.458 78.6769,304.791 84.5,313.5C 81.9438,312.457 79.7772,310.79 78,308.5C 71.2035,298.283 66.0368,287.283 62.5,275.5C 61.3356,282.476 61.1689,289.476 62,296.5C 63.0251,304.322 64.3584,311.988 66,319.5C 61.8037,311.017 59.3037,302.017 58.5,292.5C 58.81,289.287 58.4767,286.287 57.5,283.5C 57.0266,272.172 56.6933,260.838 56.5,249.5C 55.8493,217.242 58.3493,185.242 64,153.5C 70.6597,119.639 88.1597,93.1387 116.5,74C 103.808,78.828 93.1416,86.6614 84.5,97.5C 73.4546,112.106 65.9546,128.439 62,146.5C 59.3639,156.039 57.5306,165.705 56.5,175.5C 55.1485,180.949 54.3152,186.616 54,192.5C 53.1709,212.338 53.3376,232.004 54.5,251.5C 54.5,258.167 54.5,264.833 54.5,271.5C 55.0518,311.848 56.0518,352.181 57.5,392.5C 57.5,393.833 57.5,395.167 57.5,396.5C 58.1748,410.568 59.8415,424.568 62.5,438.5C 62.5,439.833 61.8333,440.5 60.5,440.5C 58.3445,437.563 56.8445,434.229 56,430.5C 54.6667,424.5 53.3333,418.5 52,412.5C 50.1509,389.541 49.1509,366.541 49,343.5C 48.3333,299.167 48.3333,254.833 49,210.5C 49.1737,189.718 50.6737,169.051 53.5,148.5C 59.517,116.293 74.517,89.1266 98.5,67C 102.833,64 107.167,61 111.5,58C 105.427,60.3041 99.9271,63.8041 95,68.5C 94.8333,68.1667 94.6667,67.8333 94.5,67.5C 101.809,57.5257 110.142,48.5257 119.5,40.5C 134.374,30.0623 150.374,21.729 167.5,15.5C 177.113,13.453 186.78,11.6197 196.5,10C 209.883,9.27987 223.217,9.77987 236.5,11.5 Z"/></g>
<g><path style="opacity:1" fill="#656565" d="M 237.5,10.5 C 237.5,11.1667 237.167,11.5 236.5,11.5C 223.217,9.77987 209.883,9.27987 196.5,10C 186.78,11.6197 177.113,13.453 167.5,15.5C 171.858,13.403 176.524,11.903 181.5,11C 200.144,7.8555 218.81,7.68884 237.5,10.5 Z"/></g>
<g><path style="opacity:1" fill="#818181" d="M 237.5,10.5 C 255.474,13.7088 272.141,20.0422 287.5,29.5C 271.256,21.087 254.256,15.087 236.5,11.5C 237.167,11.5 237.5,11.1667 237.5,10.5 Z"/></g>
<g><path style="opacity:1" fill="#989898" d="M 167.5,15.5 C 150.374,21.729 134.374,30.0623 119.5,40.5C 133.441,28.527 149.441,20.1936 167.5,15.5 Z"/></g>
<g><path style="opacity:1" fill="#e4e3ee" d="M 175.5,18.5 C 176.552,18.3505 177.552,18.5172 178.5,19C 170.159,25.2307 162.825,32.3973 156.5,40.5C 157.5,41.1667 158.5,41.8333 159.5,42.5C 156.037,44.4647 153.037,46.9647 150.5,50C 148.721,49.956 147.055,49.2893 145.5,48C 146.624,47.7508 147.624,47.2508 148.5,46.5C 147.15,45.0499 145.484,44.3832 143.5,44.5C 143.5,43.5 143.5,42.5 143.5,41.5C 146.167,42.5 148.833,43.5 151.5,44.5C 151.413,39.7712 152.746,35.6045 155.5,32C 156.793,31.51 158.127,31.3433 159.5,31.5C 159.297,29.6096 159.963,28.1096 161.5,27C 165.859,23.4348 170.526,20.6015 175.5,18.5 Z"/></g>
<g><path style="opacity:1" fill="#959595" d="M 287.5,29.5 C 292.665,31.3375 296.999,34.3375 300.5,38.5C 295.886,35.8827 291.553,32.8827 287.5,29.5 Z"/></g>
<g><path style="opacity:1" fill="#cccccc" d="M 231.5,54.5 C 220.325,49.6224 208.658,46.4557 196.5,45C 206.902,44.765 216.902,46.765 226.5,51C 228.584,51.6972 230.251,52.8639 231.5,54.5 Z"/></g>
<g><path style="opacity:1" fill="#ededed" d="M -0.5,50.5 C 35.322,50.5427 70.9886,50.5427 106.5,50.5C 88.8515,71.3198 73.3515,93.6531 60,117.5C 56.6775,125.957 54.1775,134.624 52.5,143.5C 48.5021,167.181 46.6688,191.181 47,215.5C 45.962,278.521 46.6286,341.521 49,404.5C 50.3632,419.014 54.3632,432.681 61,445.5C 61.8113,446.96 62.6446,447.293 63.5,446.5C 62.4412,444.466 61.4412,442.466 60.5,440.5C 61.8333,440.5 62.5,439.833 62.5,438.5C 64.7743,443.61 67.4409,448.61 70.5,453.5C 69.6446,454.293 68.8113,453.96 68,452.5C 67.3333,453.167 67.3333,453.833 68,454.5C 70.1238,455.622 71.9571,457.122 73.5,459C 74.3317,459.688 74.9984,459.521 75.5,458.5C 64.763,443.765 60.0963,427.432 61.5,409.5C 67.3661,427.915 77.6995,443.249 92.5,455.5C 88.7783,456.017 85.1117,456.85 81.5,458C 80.0577,458.377 79.0577,459.21 78.5,460.5C 52.1667,460.5 25.8333,460.5 -0.5,460.5C -0.5,396.833 -0.5,333.167 -0.5,269.5C 5.63556,266.322 6.9689,261.822 3.5,256C 2.20677,255.51 0.873441,255.343 -0.5,255.5C -0.5,187.167 -0.5,118.833 -0.5,50.5 Z"/></g>
<g><path style="opacity:1" fill="#ededed" d="M 315.5,50.5 C 364.167,50.5 412.833,50.5 461.5,50.5C 461.5,187.167 461.5,323.833 461.5,460.5C 443.5,460.5 425.5,460.5 407.5,460.5C 407.333,449.162 407.5,437.828 408,426.5C 414.587,415.739 418.587,404.072 420,391.5C 422.455,376.882 422.955,362.216 421.5,347.5C 416.832,288.818 405.498,231.484 387.5,175.5C 389.824,172.196 392.157,168.862 394.5,165.5C 387.518,158.186 381.518,150.186 376.5,141.5C 372.704,131.933 366.037,128.933 356.5,132.5C 353.763,110.267 345.763,90.2674 332.5,72.5C 327.623,64.6144 321.956,57.281 315.5,50.5 Z"/></g>
<g><path style="opacity:1" fill="#8f8f8f" d="M 300.5,38.5 C 306.058,41.7164 311.058,45.7164 315.5,50.5C 321.956,57.281 327.623,64.6144 332.5,72.5C 322.904,60.2348 312.237,48.9015 300.5,38.5 Z"/></g>
<g><path style="opacity:1" fill="#bababe" d="M 231.5,54.5 C 241.693,58.1707 251.359,63.004 260.5,69C 258.063,68.7965 255.729,67.9632 253.5,66.5C 253.167,66.6667 252.833,66.8333 252.5,67C 253.71,68.0391 254.71,69.2058 255.5,70.5C 247.767,64.767 239.767,59.4336 231.5,54.5 Z"/></g>
<g><path style="opacity:1" fill="#c1c0c5" d="M 231.5,95.5 C 224.351,88.1898 216.684,81.3565 208.5,75C 194.715,68.7942 180.382,64.2942 165.5,61.5C 177.387,60.4687 188.721,62.6354 199.5,68C 207.016,71.9224 214.016,76.5891 220.5,82C 224.782,86.1027 228.449,90.6027 231.5,95.5 Z"/></g>
<g><path style="opacity:1" fill="#dedede" d="M 334.5,101.5 C 333.833,101.5 333.5,101.833 333.5,102.5C 325.069,90.9009 315.069,80.7343 303.5,72C 315.816,79.4757 326.149,89.309 334.5,101.5 Z"/></g>
<g><path style="opacity:1" fill="#d6d5db" d="M 123.5,86.5 C 124.097,86.7352 124.43,87.2352 124.5,88C 118.502,100.507 114.669,113.674 113,127.5C 112.314,112.73 115.814,99.0634 123.5,86.5 Z"/></g>
<g><path style="opacity:1" fill="#c8c7cf" d="M 56.5,249.5 C 55.6687,235.006 55.1687,220.339 55,205.5C 54.5001,220.83 54.3334,236.163 54.5,251.5C 53.3376,232.004 53.1709,212.338 54,192.5C 54.3152,186.616 55.1485,180.949 56.5,175.5C 55.7149,182.823 55.5482,190.156 56,197.5C 57.5889,166.208 65.2555,136.541 79,108.5C 81.112,104.722 83.612,101.222 86.5,98C 85.9056,97.5357 85.2389,97.369 84.5,97.5C 93.1416,86.6614 103.808,78.828 116.5,74C 88.1597,93.1387 70.6597,119.639 64,153.5C 58.3493,185.242 55.8493,217.242 56.5,249.5 Z"/></g>
<g><path style="opacity:1" fill="#e5e5e5" d="M 345.5,98.5 C 350.19,108.246 353.19,118.579 354.5,129.5C 353.503,129.53 352.836,129.03 352.5,128C 348.827,114.146 343.494,100.979 336.5,88.5C 336.846,87.3044 337.346,87.3044 338,88.5C 340.527,92.2211 342.527,96.2211 344,100.5C 344.278,99.5842 344.778,98.9175 345.5,98.5 Z"/></g>
<g><path style="opacity:1" fill="#9f9f9f" d="M 119.5,40.5 C 110.142,48.5257 101.809,57.5257 94.5,67.5C 94.6667,67.8333 94.8333,68.1667 95,68.5C 99.9271,63.8041 105.427,60.3041 111.5,58C 107.167,61 102.833,64 98.5,67C 74.517,89.1266 59.517,116.293 53.5,148.5C 52.5489,147.081 52.2155,145.415 52.5,143.5C 54.1775,134.624 56.6775,125.957 60,117.5C 73.3515,93.6531 88.8515,71.3198 106.5,50.5C 110.323,46.4312 114.656,43.0979 119.5,40.5 Z"/></g>
<g><path style="opacity:1" fill="#c8c7d1" d="M 334.5,101.5 C 342.585,111.339 348.252,122.339 351.5,134.5C 350.833,134.5 350.5,134.833 350.5,135.5C 348.938,135.733 347.605,136.4 346.5,137.5C 346.766,133.395 346.266,129.395 345,125.5C 342.201,117.264 338.368,109.598 333.5,102.5C 333.5,101.833 333.833,101.5 334.5,101.5 Z"/></g>
<g><path style="opacity:1" fill="#989898" d="M 332.5,72.5 C 345.763,90.2674 353.763,110.267 356.5,132.5C 366.037,128.933 372.704,131.933 376.5,141.5C 375.833,141.5 375.5,141.833 375.5,142.5C 371.604,132.273 364.937,129.94 355.5,135.5C 353.833,135.5 352.167,135.5 350.5,135.5C 350.5,134.833 350.833,134.5 351.5,134.5C 352.5,134.5 353.5,134.5 354.5,134.5C 354.5,132.833 354.5,131.167 354.5,129.5C 353.19,118.579 350.19,108.246 345.5,98.5C 341.681,89.5279 337.347,80.8612 332.5,72.5 Z"/></g>
<g><path style="opacity:1" fill="#c9c8cc" d="M 343.5,138.5 C 342.71,139.401 341.71,140.068 340.5,140.5C 337.414,135.908 333.747,131.742 329.5,128C 330.167,127.333 330.833,127.333 331.5,128C 335.416,131.761 339.416,135.261 343.5,138.5 Z"/></g>
<g><path style="opacity:1" fill="#dedede" d="M 334.5,145.5 C 333.833,146.833 332.833,147.833 331.5,148.5C 331.631,147.624 331.298,146.957 330.5,146.5C 320.88,142.024 311.547,137.024 302.5,131.5C 301.167,130.833 301.167,130.167 302.5,129.5C 312.379,136.44 323.046,141.773 334.5,145.5 Z"/></g>
<g><path style="opacity:1" fill="#5a5a5a" d="M 350.5,135.5 C 352.167,135.5 353.833,135.5 355.5,135.5C 355.5,135.833 355.5,136.167 355.5,136.5C 354.251,139.087 353.251,141.754 352.5,144.5C 352.649,143.448 352.483,142.448 352,141.5C 346.873,145.91 343.539,151.243 342,157.5C 344.397,154.6 347.23,152.267 350.5,150.5C 351.17,148.709 351.837,147.042 352.5,145.5C 352.185,149.371 352.518,153.038 353.5,156.5C 354.092,159.127 354.425,161.794 354.5,164.5C 354.768,166.099 354.434,167.432 353.5,168.5C 353.813,165.753 353.48,163.086 352.5,160.5C 348.626,168.456 345.959,176.789 344.5,185.5C 344.167,185.5 343.833,185.5 343.5,185.5C 341.5,184.5 339.5,183.5 337.5,182.5C 337.5,181.833 337.167,181.5 336.5,181.5C 329.195,177.187 323.195,171.52 318.5,164.5C 319.341,163.074 320.341,161.74 321.5,160.5C 324.486,156.183 327.82,152.183 331.5,148.5C 332.833,147.833 333.833,146.833 334.5,145.5C 336.54,143.823 338.54,142.156 340.5,140.5C 341.71,140.068 342.71,139.401 343.5,138.5C 344.609,138.443 345.609,138.11 346.5,137.5C 347.605,136.4 348.938,135.733 350.5,135.5 Z"/></g>
<g><path style="opacity:1" fill="#fafafa" d="M 375.5,142.5 C 377.756,147.941 379.423,153.608 380.5,159.5C 380.259,161.898 380.926,163.898 382.5,165.5C 382.723,169.162 383.723,172.495 385.5,175.5C 385.5,176.167 385.5,176.833 385.5,177.5C 391.294,205.847 395.127,234.514 397,263.5C 398.175,288.354 396.675,313.021 392.5,337.5C 388.267,351.085 382.6,364.085 375.5,376.5C 374.167,376.5 372.833,376.5 371.5,376.5C 373.163,360.209 374.163,343.876 374.5,327.5C 380.389,288.856 379.556,250.189 372,211.5C 374.742,232.032 376.242,252.699 376.5,273.5C 376.611,283.705 375.945,293.705 374.5,303.5C 374.187,282.7 372.353,262.034 369,241.5C 364.792,215.568 359.959,189.901 354.5,164.5C 354.425,161.794 354.092,159.127 353.5,156.5C 353.335,152.818 353.501,149.152 354,145.5C 355,146.833 356,148.167 357,149.5C 357.308,148.692 357.808,148.025 358.5,147.5C 359.892,148.605 361.059,149.939 362,151.5C 362.167,150.833 362.333,150.167 362.5,149.5C 360.922,144.671 358.588,140.338 355.5,136.5C 355.5,136.167 355.5,135.833 355.5,135.5C 364.937,129.94 371.604,132.273 375.5,142.5 Z"/></g>
<g><path style="opacity:1" fill="#dddce0" d="M 355.5,136.5 C 358.588,140.338 360.922,144.671 362.5,149.5C 362.333,150.167 362.167,150.833 362,151.5C 361.059,149.939 359.892,148.605 358.5,147.5C 357.808,148.025 357.308,148.692 357,149.5C 356,148.167 355,146.833 354,145.5C 353.501,149.152 353.335,152.818 353.5,156.5C 352.518,153.038 352.185,149.371 352.5,145.5C 352.5,145.167 352.5,144.833 352.5,144.5C 353.251,141.754 354.251,139.087 355.5,136.5 Z"/></g>
<g><path style="opacity:1" fill="#c4c4c4" d="M 255.5,70.5 C 260.072,73.5633 264.239,77.23 268,81.5C 274.744,89.9839 280.744,98.9839 286,108.5C 288.473,110.973 290.973,113.473 293.5,116C 292.004,116.507 290.837,116.007 290,114.5C 295.349,127.889 300.182,141.555 304.5,155.5C 304.167,155.5 303.833,155.5 303.5,155.5C 302.442,154.4 301.608,153.066 301,151.5C 293.042,120.23 277.875,93.2296 255.5,70.5 Z"/></g>
<g><path style="opacity:1" fill="#2b292c" d="M 352.5,144.5 C 352.5,144.833 352.5,145.167 352.5,145.5C 351.837,147.042 351.17,148.709 350.5,150.5C 347.23,152.267 344.397,154.6 342,157.5C 343.539,151.243 346.873,145.91 352,141.5C 352.483,142.448 352.649,143.448 352.5,144.5 Z"/></g>
<g><path style="opacity:1" fill="#b1b0b8" d="M 84.5,97.5 C 85.2389,97.369 85.9056,97.5357 86.5,98C 83.612,101.222 81.112,104.722 79,108.5C 65.2555,136.541 57.5889,166.208 56,197.5C 55.5482,190.156 55.7149,182.823 56.5,175.5C 57.5306,165.705 59.3639,156.039 62,146.5C 65.9546,128.439 73.4546,112.106 84.5,97.5 Z"/></g>
<g><path style="opacity:1" fill="#cecece" d="M 231.5,95.5 C 242.135,107.755 249.969,121.755 255,137.5C 262.478,161.724 267.978,186.391 271.5,211.5C 272.442,215.418 273.108,219.418 273.5,223.5C 272.833,223.167 272.167,222.833 271.5,222.5C 267.338,187.881 259.172,154.214 247,121.5C 242.062,112.613 236.896,103.946 231.5,95.5 Z"/></g>
<g><path style="opacity:1" fill="#2c2a2c" d="M 376.5,141.5 C 381.518,150.186 387.518,158.186 394.5,165.5C 392.157,168.862 389.824,172.196 387.5,175.5C 386.833,175.5 386.167,175.5 385.5,175.5C 385.277,171.838 384.277,168.505 382.5,165.5C 382.741,163.102 382.074,161.102 380.5,159.5C 379.423,153.608 377.756,147.941 375.5,142.5C 375.5,141.833 375.833,141.5 376.5,141.5 Z"/></g>
<g><path style="opacity:1" fill="#a7a7a7" d="M 380.5,159.5 C 382.074,161.102 382.741,163.102 382.5,165.5C 380.926,163.898 380.259,161.898 380.5,159.5 Z"/></g>
<g><path style="opacity:1" fill="#a1a0a7" d="M 128.5,211.5 C 127.833,211.5 127.167,211.5 126.5,211.5C 122.945,199.588 119.445,187.588 116,175.5C 115.682,187.625 116.848,199.625 119.5,211.5C 119.453,213.038 120.12,214.038 121.5,214.5C 120.194,215.467 119.527,216.801 119.5,218.5C 117.466,208.302 115.633,197.969 114,187.5C 112.611,175.837 112.444,164.17 113.5,152.5C 117.401,172.436 122.401,192.102 128.5,211.5 Z"/></g>
<g><path style="opacity:1" fill="#9e9c9e" d="M 382.5,165.5 C 384.277,168.505 385.277,171.838 385.5,175.5C 383.723,172.495 382.723,169.162 382.5,165.5 Z"/></g>
<g><path style="opacity:1" fill="#f8f8f9" d="M 318.5,164.5 C 323.195,171.52 329.195,177.187 336.5,181.5C 331.681,188.993 325.347,194.659 317.5,198.5C 317.662,196.473 317.495,194.473 317,192.5C 312.897,183.446 309.397,174.113 306.5,164.5C 310.649,163.191 314.649,163.191 318.5,164.5 Z"/></g>
<g><path style="opacity:1" fill="#2d2c31" d="M 353.5,168.5 C 352.89,169.391 352.557,170.391 352.5,171.5C 350.98,176.595 349.313,181.595 347.5,186.5C 346.209,186.737 345.209,186.404 344.5,185.5C 345.959,176.789 348.626,168.456 352.5,160.5C 353.48,163.086 353.813,165.753 353.5,168.5 Z"/></g>
<g><path style="opacity:1" fill="#ebebec" d="M 274.5,227.5 C 273.566,226.432 273.232,225.099 273.5,223.5C 273.108,219.418 272.442,215.418 271.5,211.5C 275.197,212.008 278.864,212.674 282.5,213.5C 279.169,195.513 276.002,177.513 273,159.5C 277.849,176.735 281.682,194.235 284.5,212C 284.785,213.89 285.785,215.223 287.5,216C 290.628,216.875 293.628,218.042 296.5,219.5C 292.894,221.785 289.56,224.285 286.5,227C 291.702,267.008 293.368,307.175 291.5,347.5C 291.449,312.358 289.449,277.358 285.5,242.5C 285.941,240.855 286.274,239.189 286.5,237.5C 284.672,232.856 282.672,228.189 280.5,223.5C 279.002,223.166 277.335,223.166 275.5,223.5C 274.571,224.689 274.238,226.022 274.5,227.5 Z"/></g>
<g><path style="opacity:1" fill="#fafafa" d="M 219.5,235.5 C 218.883,235.611 218.383,235.944 218,236.5C 217.667,232.5 217.333,228.5 217,224.5C 216.581,225.672 215.915,226.672 215,227.5C 213.909,214.44 212.409,201.44 210.5,188.5C 225.683,185.519 241.016,184.186 256.5,184.5C 256.552,193.518 256.218,202.518 255.5,211.5C 243.773,211.577 232.773,214.41 222.5,220C 221.289,220.893 221.289,221.726 222.5,222.5C 223.451,221.674 224.451,221.508 225.5,222C 223.937,226.46 221.604,230.46 218.5,234C 219.056,234.383 219.389,234.883 219.5,235.5 Z"/></g>
<g><path style="opacity:1" fill="#f3f3f5" d="M 337.5,182.5 C 339.5,183.5 341.5,184.5 343.5,185.5C 343.185,187.226 343.019,188.893 343,190.5C 343.915,189.672 344.581,188.672 345,187.5C 344.723,190.403 343.556,193.07 341.5,195.5C 342.167,196.167 342.833,196.833 343.5,197.5C 341.413,202.67 339.08,207.67 336.5,212.5C 333.5,208.833 330.167,205.5 326.5,202.5C 330.167,195.833 333.833,189.167 337.5,182.5 Z"/></g>
<g><path style="opacity:1" fill="#ededed" d="M 355.5,178.5 C 367.353,227.997 373.02,278.331 372.5,329.5C 372.101,344.885 371.101,360.218 369.5,375.5C 360.827,375.666 352.16,375.5 343.5,375C 337.842,374.749 332.508,373.582 327.5,371.5C 327.5,349.833 327.5,328.167 327.5,306.5C 327.5,306.167 327.5,305.833 327.5,305.5C 331.146,302.521 334.479,299.188 337.5,295.5C 334.52,290.854 330.853,286.854 326.5,283.5C 325.656,278.231 324.989,272.897 324.5,267.5C 323.495,263.479 323.495,259.479 324.5,255.5C 333.616,248.43 339.282,239.263 341.5,228C 341.506,225.7 341.006,223.534 340,221.5C 339.824,225.688 339.324,229.688 338.5,233.5C 338.5,229.167 338.5,224.833 338.5,220.5C 339.117,218.679 339.284,216.679 339,214.5C 346.583,203.922 351.75,192.256 354.5,179.5C 355.167,179.5 355.5,179.167 355.5,178.5 Z"/></g>
<g><path style="opacity:1" fill="#c6c5d4" d="M 126.5,211.5 C 125.035,212.737 123.368,213.737 121.5,214.5C 120.12,214.038 119.453,213.038 119.5,211.5C 116.848,199.625 115.682,187.625 116,175.5C 119.445,187.588 122.945,199.588 126.5,211.5 Z"/></g>
<g><path style="opacity:1" fill="#bfbdc8" d="M 303.5,155.5 C 303.833,155.5 304.167,155.5 304.5,155.5C 309.622,158.696 315.288,160.363 321.5,160.5C 320.341,161.74 319.341,163.074 318.5,164.5C 314.649,163.191 310.649,163.191 306.5,164.5C 309.397,174.113 312.897,183.446 317,192.5C 317.495,194.473 317.662,196.473 317.5,198.5C 325.347,194.659 331.681,188.993 336.5,181.5C 337.167,181.5 337.5,181.833 337.5,182.5C 333.833,189.167 330.167,195.833 326.5,202.5C 320.965,199.269 316.965,200.602 314.5,206.5C 311.322,189.447 307.655,172.447 303.5,155.5 Z"/></g>
<g><path style="opacity:1" fill="#c4c2ce" d="M 355.5,178.5 C 355.5,179.167 355.167,179.5 354.5,179.5C 350.428,191.148 345.095,202.315 338.5,213C 337.563,213.692 336.897,213.525 336.5,212.5C 339.08,207.67 341.413,202.67 343.5,197.5C 342.833,196.833 342.167,196.167 341.5,195.5C 343.556,193.07 344.723,190.403 345,187.5C 344.581,188.672 343.915,189.672 343,190.5C 343.019,188.893 343.185,187.226 343.5,185.5C 343.833,185.5 344.167,185.5 344.5,185.5C 345.209,186.404 346.209,186.737 347.5,186.5C 349.313,181.595 350.98,176.595 352.5,171.5C 353.117,171.389 353.617,171.056 354,170.5C 354.183,173.365 354.683,176.031 355.5,178.5 Z"/></g>
<g><path style="opacity:1" fill="#a5a4a9" d="M 261.5,210.5 C 259.833,210.5 258.167,210.5 256.5,210.5C 257.396,200.532 257.729,190.532 257.5,180.5C 257.281,179.325 257.614,178.325 258.5,177.5C 259.761,181.061 260.594,184.728 261,188.5C 261.5,195.826 261.666,203.159 261.5,210.5 Z"/></g>
<g><path style="opacity:1" fill="#eeeeee" d="M 257.5,180.5 C 257.729,190.532 257.396,200.532 256.5,210.5C 256.5,210.833 256.5,211.167 256.5,211.5C 256.326,213.861 255.993,216.194 255.5,218.5C 254.549,219.919 254.216,221.585 254.5,223.5C 253.053,226.392 250.719,228.058 247.5,228.5C 239.224,230.232 231.224,232.565 223.5,235.5C 222.167,235.5 220.833,235.5 219.5,235.5C 219.389,234.883 219.056,234.383 218.5,234C 221.604,230.46 223.937,226.46 225.5,222C 224.451,221.508 223.451,221.674 222.5,222.5C 221.289,221.726 221.289,220.893 222.5,220C 232.773,214.41 243.773,211.577 255.5,211.5C 256.218,202.518 256.552,193.518 256.5,184.5C 241.016,184.186 225.683,185.519 210.5,188.5C 209.681,186.228 209.015,183.894 208.5,181.5C 209.606,182.149 210.606,182.483 211.5,182.5C 210.754,183.736 210.421,185.07 210.5,186.5C 225.909,182.378 241.576,180.378 257.5,180.5 Z"/></g>
<g><path style="opacity:1" fill="#080708" d="M 256.5,211.5 C 257.833,211.5 259.167,211.5 260.5,211.5C 260.5,214.167 260.5,216.833 260.5,219.5C 258.585,219.784 256.919,219.451 255.5,218.5C 255.993,216.194 256.326,213.861 256.5,211.5 Z"/></g>
<g><path style="opacity:1" fill="#c6c4ce" d="M 317.5,204.5 C 317.775,209.475 320.108,211.141 324.5,209.5C 327.028,209.763 329.361,210.596 331.5,212C 331.043,212.414 330.709,212.914 330.5,213.5C 333.006,217.178 334.173,221.178 334,225.5C 333.241,222.215 331.908,219.215 330,216.5C 326.985,212.76 323.818,212.594 320.5,216C 320.957,216.414 321.291,216.914 321.5,217.5C 320.007,218.141 319.007,219.141 318.5,220.5C 317.509,215.957 316.509,211.291 315.5,206.5C 315.855,205.478 316.522,204.811 317.5,204.5 Z"/></g>
<g><path style="opacity:1" fill="#96959b" d="M 354.5,179.5 C 351.75,192.256 346.583,203.922 339,214.5C 339.284,216.679 339.117,218.679 338.5,220.5C 335.37,212.197 329.87,205.863 322,201.5C 320.019,201.899 318.519,202.899 317.5,204.5C 316.522,204.811 315.855,205.478 315.5,206.5C 316.509,211.291 317.509,215.957 318.5,220.5C 318.674,222.861 319.007,225.194 319.5,227.5C 319.952,231.546 320.619,235.546 321.5,239.5C 321.5,240.833 321.5,242.167 321.5,243.5C 322.7,246.969 322.7,250.302 321.5,253.5C 318.708,237.915 316.374,222.249 314.5,206.5C 316.965,200.602 320.965,199.269 326.5,202.5C 330.167,205.5 333.5,208.833 336.5,212.5C 336.897,213.525 337.563,213.692 338.5,213C 345.095,202.315 350.428,191.148 354.5,179.5 Z"/></g>
<g><path style="opacity:1" fill="#1e1e21" d="M 126.5,211.5 C 127.167,211.5 127.833,211.5 128.5,211.5C 128.5,211.833 128.5,212.167 128.5,212.5C 128.5,213.5 128.5,214.5 128.5,215.5C 126.447,215.402 124.78,216.069 123.5,217.5C 122.391,217.557 121.391,217.89 120.5,218.5C 120.167,218.5 119.833,218.5 119.5,218.5C 119.527,216.801 120.194,215.467 121.5,214.5C 123.368,213.737 125.035,212.737 126.5,211.5 Z"/></g>
<g><path style="opacity:1" fill="#f7f7f8" d="M 338.5,220.5 C 338.5,224.833 338.5,229.167 338.5,233.5C 336.356,240.822 332.356,246.989 326.5,252C 325.4,252.432 324.733,251.932 324.5,250.5C 326.986,246.873 329.486,243.206 332,239.5C 332.667,238.5 332.667,237.5 332,236.5C 329.759,241.321 326.259,243.655 321.5,243.5C 321.5,242.167 321.5,240.833 321.5,239.5C 324.517,234.938 323.851,230.938 319.5,227.5C 319.007,225.194 318.674,222.861 318.5,220.5C 319.007,219.141 320.007,218.141 321.5,217.5C 321.291,216.914 320.957,216.414 320.5,216C 323.818,212.594 326.985,212.76 330,216.5C 331.908,219.215 333.241,222.215 334,225.5C 334.173,221.178 333.006,217.178 330.5,213.5C 330.709,212.914 331.043,212.414 331.5,212C 329.361,210.596 327.028,209.763 324.5,209.5C 320.108,211.141 317.775,209.475 317.5,204.5C 318.519,202.899 320.019,201.899 322,201.5C 329.87,205.863 335.37,212.197 338.5,220.5 Z"/></g>
<g><path style="opacity:1" fill="#c9c8d3" d="M 207.5,190.5 C 207.833,190.5 208.167,190.5 208.5,190.5C 211.714,205.722 212.714,221.055 211.5,236.5C 211.957,237.298 212.624,237.631 213.5,237.5C 211.544,237.867 209.544,238.2 207.5,238.5C 208.696,222.561 208.696,206.561 207.5,190.5 Z"/></g>
<g><path style="opacity:1" fill="#9a999c" d="M 128.5,212.5 C 132.48,222.09 136.48,231.757 140.5,241.5C 139.609,240.89 138.609,240.557 137.5,240.5C 137.443,239.391 137.11,238.391 136.5,237.5C 133.833,230.166 131.166,222.833 128.5,215.5C 128.5,214.5 128.5,213.5 128.5,212.5 Z"/></g>
<g><path style="opacity:1" fill="#a3a2a5" d="M 206.5,190.5 C 206.833,190.5 207.167,190.5 207.5,190.5C 208.696,206.561 208.696,222.561 207.5,238.5C 199.718,240.361 192.051,242.361 184.5,244.5C 184.5,244.167 184.5,243.833 184.5,243.5C 185.418,230.496 185.751,217.496 185.5,204.5C 187.757,216.699 189.091,229.033 189.5,241.5C 195.209,240.323 200.876,238.989 206.5,237.5C 207.723,221.84 207.723,206.174 206.5,190.5 Z"/></g>
<g><path style="opacity:1" fill="#615b4e" d="M 256.5,211.5 C 256.5,211.167 256.5,210.833 256.5,210.5C 258.167,210.5 259.833,210.5 261.5,210.5C 261.5,214.167 261.5,217.833 261.5,221.5C 259.214,221.595 257.214,222.262 255.5,223.5C 255.167,223.5 254.833,223.5 254.5,223.5C 254.216,221.585 254.549,219.919 255.5,218.5C 256.919,219.451 258.585,219.784 260.5,219.5C 260.5,216.833 260.5,214.167 260.5,211.5C 259.167,211.5 257.833,211.5 256.5,211.5 Z"/></g>
<g><path style="opacity:1" fill="#f6f5f7" d="M 128.5,215.5 C 131.166,222.833 133.833,230.166 136.5,237.5C 133.833,238.167 131.167,238.833 128.5,239.5C 127.458,232 125.791,224.667 123.5,217.5C 124.78,216.069 126.447,215.402 128.5,215.5 Z"/></g>
<g><path style="opacity:1" fill="#9c9aa3" d="M 119.5,218.5 C 119.833,218.5 120.167,218.5 120.5,218.5C 122.015,225.895 123.849,233.228 126,240.5C 126.741,241.641 127.575,241.641 128.5,240.5C 129.298,240.957 129.631,241.624 129.5,242.5C 128.5,243.167 127.5,243.833 126.5,244.5C 125.833,243.833 125.167,243.167 124.5,242.5C 122.193,234.666 120.526,226.666 119.5,218.5 Z"/></g>
<g><path style="opacity:1" fill="#aeadaf" d="M 324.5,267.5 C 323.662,267.842 323.328,268.508 323.5,269.5C 321.74,264.447 321.073,259.114 321.5,253.5C 322.7,250.302 322.7,246.969 321.5,243.5C 326.259,243.655 329.759,241.321 332,236.5C 332.667,237.5 332.667,238.5 332,239.5C 329.486,243.206 326.986,246.873 324.5,250.5C 324.733,251.932 325.4,252.432 326.5,252C 332.356,246.989 336.356,240.822 338.5,233.5C 339.324,229.688 339.824,225.688 340,221.5C 341.006,223.534 341.506,225.7 341.5,228C 339.282,239.263 333.616,248.43 324.5,255.5C 323.495,259.479 323.495,263.479 324.5,267.5 Z"/></g>
<g><path style="opacity:1" fill="#af9d78" d="M 254.5,223.5 C 254.833,223.5 255.167,223.5 255.5,223.5C 255.649,224.552 255.483,225.552 255,226.5C 252.689,227.397 250.856,228.73 249.5,230.5C 248.833,230.5 248.167,230.5 247.5,230.5C 248.506,229.604 248.506,228.938 247.5,228.5C 250.719,228.058 253.053,226.392 254.5,223.5 Z"/></g>
<g><path style="opacity:1" fill="#f9f9f9" d="M 392.5,200.5 C 405.749,244.57 414.082,289.57 417.5,335.5C 416.316,346.232 414.15,356.899 411,367.5C 410.818,364.774 410.318,362.107 409.5,359.5C 408.575,369.236 407.242,378.902 405.5,388.5C 404.362,391.719 403.529,395.053 403,398.5C 399.033,389.366 392.533,382.7 383.5,378.5C 387.296,366.317 390.63,353.983 393.5,341.5C 399.6,311.897 401.1,281.897 398,251.5C 396.381,235.097 394.214,218.764 391.5,202.5C 391.543,201.584 391.876,200.917 392.5,200.5 Z"/></g>
<g><path style="opacity:1" fill="#cfced7" d="M 123.5,217.5 C 125.791,224.667 127.458,232 128.5,239.5C 131.167,238.833 133.833,238.167 136.5,237.5C 137.11,238.391 137.443,239.391 137.5,240.5C 134.673,240.584 132.006,241.25 129.5,242.5C 129.631,241.624 129.298,240.957 128.5,240.5C 127.575,241.641 126.741,241.641 126,240.5C 123.849,233.228 122.015,225.895 120.5,218.5C 121.391,217.89 122.391,217.557 123.5,217.5 Z"/></g>
<g><path style="opacity:1" fill="#a7a6ab" d="M 208.5,181.5 C 209.015,183.894 209.681,186.228 210.5,188.5C 212.409,201.44 213.909,214.44 215,227.5C 215.915,226.672 216.581,225.672 217,224.5C 217.333,228.5 217.667,232.5 218,236.5C 218.383,235.944 218.883,235.611 219.5,235.5C 220.833,235.5 222.167,235.5 223.5,235.5C 220.204,237.165 216.871,237.832 213.5,237.5C 212.624,237.631 211.957,237.298 211.5,236.5C 212.714,221.055 211.714,205.722 208.5,190.5C 209.885,189.698 209.718,189.031 208,188.5C 206.97,188.836 206.47,189.503 206.5,190.5C 203.597,174.928 199.931,159.428 195.5,144C 196.102,142.437 196.935,142.604 198,144.5C 202.62,156.526 206.12,168.86 208.5,181.5 Z"/></g>
<g><path style="opacity:1" fill="#27262c" d="M 208.5,190.5 C 208.167,190.5 207.833,190.5 207.5,190.5C 207.167,190.5 206.833,190.5 206.5,190.5C 206.47,189.503 206.97,188.836 208,188.5C 209.718,189.031 209.885,189.698 208.5,190.5 Z"/></g>
<g><path style="opacity:1" fill="#969594" d="M 247.5,228.5 C 248.506,228.938 248.506,229.604 247.5,230.5C 239.509,232.164 231.509,233.831 223.5,235.5C 231.224,232.565 239.224,230.232 247.5,228.5 Z"/></g>
<g><path style="opacity:1" fill="#c9c7d2" d="M 319.5,227.5 C 323.851,230.938 324.517,234.938 321.5,239.5C 320.619,235.546 319.952,231.546 319.5,227.5 Z"/></g>
<g><path style="opacity:1" fill="#fbf9f9" d="M 247.5,230.5 C 248.167,230.5 248.833,230.5 249.5,230.5C 251.62,231.403 251.954,232.737 250.5,234.5C 249.022,234.238 247.689,234.571 246.5,235.5C 246.624,236.107 246.957,236.44 247.5,236.5C 249.024,243.885 252.357,250.219 257.5,255.5C 257.607,257.379 257.107,257.712 256,256.5C 250.792,258.259 245.292,259.093 239.5,259C 222.192,261.651 204.859,265.318 187.5,270C 186.666,272.493 184.999,272.993 182.5,271.5C 180.159,272.182 177.826,272.849 175.5,273.5C 175.313,275.564 174.813,277.564 174,279.5C 172.131,275.62 170.964,271.62 170.5,267.5C 170.101,261.798 168.768,256.298 166.5,251C 172.084,247.97 178.084,245.803 184.5,244.5C 192.051,242.361 199.718,240.361 207.5,238.5C 209.544,238.2 211.544,237.867 213.5,237.5C 216.871,237.832 220.204,237.165 223.5,235.5C 231.509,233.831 239.509,232.164 247.5,230.5 Z"/></g>
<g><path style="opacity:1" fill="#7d653a" d="M 271.5,230.5 C 271.167,231.833 270.833,233.167 270.5,234.5C 269.147,232.872 269.481,231.538 271.5,230.5 Z"/></g>
<g><path style="opacity:1" fill="#9d9076" d="M 261.5,221.5 C 261.5,222.5 261.5,223.5 261.5,224.5C 264.833,223.833 268.167,223.167 271.5,222.5C 272.167,222.833 272.833,223.167 273.5,223.5C 273.232,225.099 273.566,226.432 274.5,227.5C 274.833,232.167 275.167,236.833 275.5,241.5C 275.784,243.415 275.451,245.081 274.5,246.5C 274.5,244.833 274.5,243.167 274.5,241.5C 273.5,241.5 272.5,241.5 271.5,241.5C 271.5,241.167 271.5,240.833 271.5,240.5C 272.5,240.5 273.5,240.5 274.5,240.5C 274.635,238.446 273.968,236.779 272.5,235.5C 273.139,234.903 273.472,234.07 273.5,233C 273.316,231.624 272.649,230.791 271.5,230.5C 273.161,226.161 271.828,224.828 267.5,226.5C 263.662,225.264 259.662,224.264 255.5,223.5C 257.214,222.262 259.214,221.595 261.5,221.5 Z"/></g>
<g><path style="opacity:1" fill="#d5c17e" d="M 271.5,230.5 C 272.649,230.791 273.316,231.624 273.5,233C 273.472,234.07 273.139,234.903 272.5,235.5C 271.833,235.167 271.167,234.833 270.5,234.5C 270.833,233.167 271.167,231.833 271.5,230.5 Z"/></g>
<g><path style="opacity:1" fill="#160f09" d="M 271.5,230.5 C 269.481,231.538 269.147,232.872 270.5,234.5C 271.167,234.833 271.833,235.167 272.5,235.5C 273.968,236.779 274.635,238.446 274.5,240.5C 273.5,240.5 272.5,240.5 271.5,240.5C 267.664,237.322 264.998,238.155 263.5,243C 262.207,243.49 260.873,243.657 259.5,243.5C 259.377,240.412 260.377,237.745 262.5,235.5C 260.091,234.299 258.091,232.633 256.5,230.5C 257.167,229.167 258.167,228.167 259.5,227.5C 261.109,228.888 262.942,229.888 265,230.5C 266.595,229.644 267.428,228.311 267.5,226.5C 271.828,224.828 273.161,226.161 271.5,230.5 Z"/></g>
<g><path style="opacity:1" fill="#9c8965" d="M 250.5,234.5 C 250.833,237.167 251.167,239.833 251.5,242.5C 250.499,239.685 249.166,237.685 247.5,236.5C 246.957,236.44 246.624,236.107 246.5,235.5C 247.689,234.571 249.022,234.238 250.5,234.5 Z"/></g>
<g><path style="opacity:1" fill="#101010" d="M 137.5,240.5 C 138.609,240.557 139.609,240.89 140.5,241.5C 141.674,242.514 142.34,243.847 142.5,245.5C 140.639,247.562 138.305,248.895 135.5,249.5C 133.906,249.92 132.406,250.586 131,251.5C 129.002,249.508 127.502,247.174 126.5,244.5C 127.5,243.833 128.5,243.167 129.5,242.5C 132.006,241.25 134.673,240.584 137.5,240.5 Z"/></g>
<g><path style="opacity:1" fill="#f5d280" d="M 255.5,223.5 C 259.662,224.264 263.662,225.264 267.5,226.5C 267.428,228.311 266.595,229.644 265,230.5C 262.942,229.888 261.109,228.888 259.5,227.5C 258.167,228.167 257.167,229.167 256.5,230.5C 258.091,232.633 260.091,234.299 262.5,235.5C 260.377,237.745 259.377,240.412 259.5,243.5C 260.873,243.657 262.207,243.49 263.5,243C 264.998,238.155 267.664,237.322 271.5,240.5C 271.5,240.833 271.5,241.167 271.5,241.5C 268.642,243.06 265.642,244.726 262.5,246.5C 261.457,248.849 260.124,250.849 258.5,252.5C 257.85,252.196 257.183,251.863 256.5,251.5C 255.208,248.229 253.542,245.229 251.5,242.5C 251.167,239.833 250.833,237.167 250.5,234.5C 251.954,232.737 251.62,231.403 249.5,230.5C 250.856,228.73 252.689,227.397 255,226.5C 255.483,225.552 255.649,224.552 255.5,223.5 Z"/></g>
<g><path style="opacity:1" fill="#6d6151" d="M 251.5,242.5 C 253.542,245.229 255.208,248.229 256.5,251.5C 257.183,251.863 257.85,252.196 258.5,252.5C 258.932,253.71 259.599,254.71 260.5,255.5C 260.5,256.167 260.167,256.5 259.5,256.5C 258.833,256.167 258.167,255.833 257.5,255.5C 252.357,250.219 249.024,243.885 247.5,236.5C 249.166,237.685 250.499,239.685 251.5,242.5 Z"/></g>
<g><path style="opacity:1" fill="#c1c0c8" d="M 100.5,251.5 C 98.631,253.635 97.9644,256.302 98.5,259.5C 95.1633,250.009 91.4967,240.509 87.5,231C 87.6667,230.5 87.8333,230 88,229.5C 91.4349,237.384 95.6015,244.717 100.5,251.5 Z"/></g>
<g><path style="opacity:1" fill="#262626" d="M 126.5,254.5 C 125.18,252.537 123.846,250.537 122.5,248.5C 122.897,247.475 123.563,247.308 124.5,248C 126.167,249.667 127.833,251.333 129.5,253C 128.473,253.513 127.473,254.013 126.5,254.5 Z"/></g>
<g><path style="opacity:1" fill="#696157" d="M 142.5,245.5 C 143.89,246.899 144.89,248.566 145.5,250.5C 144.508,250.328 143.842,250.662 143.5,251.5C 143.5,252.833 143.5,254.167 143.5,255.5C 141.833,255.5 140.167,255.5 138.5,255.5C 138.379,252.895 137.379,250.895 135.5,249.5C 138.305,248.895 140.639,247.562 142.5,245.5 Z"/></g>
<g><path style="opacity:1" fill="#b4b3b4" d="M 124.5,242.5 C 125.167,243.167 125.833,243.833 126.5,244.5C 127.502,247.174 129.002,249.508 131,251.5C 132.406,250.586 133.906,249.92 135.5,249.5C 137.379,250.895 138.379,252.895 138.5,255.5C 137.883,255.389 137.383,255.056 137,254.5C 131.165,257.759 125.832,261.759 121,266.5C 119.991,268.025 119.491,269.692 119.5,271.5C 118.349,269.221 117.349,266.888 116.5,264.5C 119.751,262.043 123.418,260.376 127.5,259.5C 127.371,257.784 127.038,256.117 126.5,254.5C 127.473,254.013 128.473,253.513 129.5,253C 127.833,251.333 126.167,249.667 124.5,248C 123.563,247.308 122.897,247.475 122.5,248.5C 119.561,244.624 117.728,240.29 117,235.5C 118.92,238.339 120.587,241.339 122,244.5C 122.667,243.167 123.333,243.167 124,244.5C 124.464,243.906 124.631,243.239 124.5,242.5 Z"/></g>
<g><path style="opacity:1" fill="#968a79" d="M 184.5,243.5 C 184.5,243.833 184.5,244.167 184.5,244.5C 178.084,245.803 172.084,247.97 166.5,251C 168.768,256.298 170.101,261.798 170.5,267.5C 170.809,272.267 170.309,276.934 169,281.5C 168.329,282.252 167.496,282.586 166.5,282.5C 168.313,279.504 168.646,276.504 167.5,273.5C 167.5,272.5 167.5,271.5 167.5,270.5C 168.693,270.03 169.36,269.03 169.5,267.5C 169.196,264.614 168.529,261.948 167.5,259.5C 166.513,256.854 165.513,254.188 164.5,251.5C 161.091,250.039 158.758,251.039 157.5,254.5C 157.737,253.209 157.404,252.209 156.5,251.5C 165.562,248.231 174.895,245.565 184.5,243.5 Z"/></g>
<g><path style="opacity:1" fill="#fbeecd" d="M 271.5,241.5 C 272.5,241.5 273.5,241.5 274.5,241.5C 274.5,243.167 274.5,244.833 274.5,246.5C 274.808,248.924 274.474,251.257 273.5,253.5C 269.313,255.065 264.98,255.732 260.5,255.5C 259.599,254.71 258.932,253.71 258.5,252.5C 260.124,250.849 261.457,248.849 262.5,246.5C 265.642,244.726 268.642,243.06 271.5,241.5 Z"/></g>
<g><path style="opacity:1" fill="#fdeded" d="M 275.5,258.5 C 275.664,261.187 275.497,263.854 275,266.5C 274.085,265.672 273.419,264.672 273,263.5C 272.5,264 272,264.5 271.5,265C 260.974,267.294 250.308,268.961 239.5,270C 236.498,270.778 233.664,271.945 231,273.5C 228.916,271.775 226.75,271.108 224.5,271.5C 219.544,272.817 214.544,273.817 209.5,274.5C 206.119,274.54 202.786,274.207 199.5,273.5C 193.531,278.135 187.864,283.135 182.5,288.5C 180.606,287.952 178.94,286.952 177.5,285.5C 176.482,286.193 175.482,286.859 174.5,287.5C 171.482,287.335 168.482,287.502 165.5,288C 164.692,288.308 164.025,288.808 163.5,289.5C 164.262,289.911 165.262,290.077 166.5,290C 160.404,292.6 154.07,294.6 147.5,296C 143.104,297.902 139.104,300.402 135.5,303.5C 132.402,302.784 129.402,301.784 126.5,300.5C 126.539,299.417 126.873,298.417 127.5,297.5C 127.043,296.702 126.376,296.369 125.5,296.5C 123.929,294.365 122.596,292.032 121.5,289.5C 123.148,288.223 124.982,287.223 127,286.5C 127.492,285.451 127.326,284.451 126.5,283.5C 128,283.167 129.5,282.833 131,282.5C 137.548,283.365 143.882,284.032 150,284.5C 150.513,283.473 151.013,282.473 151.5,281.5C 156.23,286.449 161.23,286.783 166.5,282.5C 167.496,282.586 168.329,282.252 169,281.5C 170.309,276.934 170.809,272.267 170.5,267.5C 170.964,271.62 172.131,275.62 174,279.5C 174.813,277.564 175.313,275.564 175.5,273.5C 177.826,272.849 180.159,272.182 182.5,271.5C 184.999,272.993 186.666,272.493 187.5,270C 204.859,265.318 222.192,261.651 239.5,259C 245.292,259.093 250.792,258.259 256,256.5C 257.107,257.712 257.607,257.379 257.5,255.5C 258.167,255.833 258.833,256.167 259.5,256.5C 264.572,257.697 269.572,257.03 274.5,254.5C 275.429,255.689 275.762,257.022 275.5,258.5 Z"/></g>
<g><path style="opacity:1" fill="#d8bc7c" d="M 143.5,251.5 C 143.842,250.662 144.508,250.328 145.5,250.5C 146.906,250.973 147.573,251.973 147.5,253.5C 147.244,255.912 148.244,257.579 150.5,258.5C 148.977,260.586 149.31,262.252 151.5,263.5C 152.665,262.509 153.832,261.509 155,260.5C 155.873,260.735 156.707,261.069 157.5,261.5C 157.676,259.008 157.676,256.675 157.5,254.5C 158.968,256.916 159.635,259.583 159.5,262.5C 155.845,263.352 152.179,263.852 148.5,264C 147.253,262.542 147.253,261.042 148.5,259.5C 147.726,258.289 146.893,258.289 146,259.5C 145.13,258.892 144.63,258.059 144.5,257C 147.346,254.399 147.012,252.566 143.5,251.5 Z"/></g>
<g><path style="opacity:1" fill="#9f9ea4" d="M 56.5,249.5 C 56.6933,260.838 57.0266,272.172 57.5,283.5C 57.6641,286.187 57.4974,288.854 57,291.5C 56.1877,284.681 55.3544,278.015 54.5,271.5C 54.5,264.833 54.5,258.167 54.5,251.5C 54.3334,236.163 54.5001,220.83 55,205.5C 55.1687,220.339 55.6687,235.006 56.5,249.5 Z"/></g>
<g><path style="opacity:1" fill="#5c524b" d="M 145.5,268.5 C 146.695,270.751 147.695,273.085 148.5,275.5C 148.5,275.833 148.5,276.167 148.5,276.5C 145.068,272.636 142.401,268.302 140.5,263.5C 140.238,262.022 140.571,260.689 141.5,259.5C 142.099,262.955 143.432,265.955 145.5,268.5 Z"/></g>
<g><path style="opacity:1" fill="#928375" d="M 143.5,258.5 C 144.167,261.833 144.833,265.167 145.5,268.5C 143.432,265.955 142.099,262.955 141.5,259.5C 140.571,260.689 140.238,262.022 140.5,263.5C 139.549,262.081 139.216,260.415 139.5,258.5C 140.833,258.5 142.167,258.5 143.5,258.5 Z"/></g>
<g><path style="opacity:1" fill="#f8979e" d="M -0.5,255.5 C 0.873441,255.343 2.20677,255.51 3.5,256C 6.9689,261.822 5.63556,266.322 -0.5,269.5C -0.5,264.833 -0.5,260.167 -0.5,255.5 Z"/></g>
<g><path style="opacity:1" fill="#929195" d="M 100.5,251.5 C 103.5,255.5 106.5,259.5 109.5,263.5C 108.272,264.306 107.272,265.306 106.5,266.5C 106.557,267.609 106.89,268.609 107.5,269.5C 106.624,269.369 105.957,269.702 105.5,270.5C 108.315,277.466 112.148,283.799 117,289.5C 117.667,288.167 117.667,286.833 117,285.5C 114.471,280.442 111.971,275.442 109.5,270.5C 110.791,270.263 111.791,270.596 112.5,271.5C 112.062,271.435 111.728,271.601 111.5,272C 114.697,278.001 118.03,283.835 121.5,289.5C 122.596,292.032 123.929,294.365 125.5,296.5C 125.631,297.239 125.464,297.906 125,298.5C 121.995,297.973 119.495,296.64 117.5,294.5C 118.847,295.028 120.181,295.195 121.5,295C 119.04,293.542 116.873,291.709 115,289.5C 108.174,280.177 102.674,270.177 98.5,259.5C 97.9644,256.302 98.631,253.635 100.5,251.5 Z"/></g>
<g><path style="opacity:1" fill="#e2e2e4" d="M 106.5,266.5 C 105.603,267.598 104.77,267.598 104,266.5C 102.157,262.985 101.157,259.318 101,255.5C 102.934,259.148 104.767,262.814 106.5,266.5 Z"/></g>
<g><path style="opacity:1" fill="#171717" d="M 109.5,263.5 C 110.145,264.812 111.145,265.812 112.5,266.5C 113.622,265.37 114.956,264.703 116.5,264.5C 117.349,266.888 118.349,269.221 119.5,271.5C 121.195,273.213 122.028,275.213 122,277.5C 118.89,275.364 115.723,273.364 112.5,271.5C 111.791,270.596 110.791,270.263 109.5,270.5C 109.158,269.662 108.492,269.328 107.5,269.5C 106.89,268.609 106.557,267.609 106.5,266.5C 107.272,265.306 108.272,264.306 109.5,263.5 Z"/></g>
<g><path style="opacity:1" fill="#f7dedf" d="M 275.5,258.5 C 276.767,266.638 277.434,274.971 277.5,283.5C 276.167,283.5 274.833,283.5 273.5,283.5C 269.465,283.998 267.131,282.331 266.5,278.5C 265.833,278.5 265.167,278.5 264.5,278.5C 263.432,277.566 262.099,277.232 260.5,277.5C 252.157,276.943 243.824,276.276 235.5,275.5C 233.052,274.527 230.385,274.194 227.5,274.5C 227.5,275.5 227.5,276.5 227.5,277.5C 221.291,276.979 215.291,275.979 209.5,274.5C 214.544,273.817 219.544,272.817 224.5,271.5C 226.75,271.108 228.916,271.775 231,273.5C 233.664,271.945 236.498,270.778 239.5,270C 250.308,268.961 260.974,267.294 271.5,265C 272,264.5 272.5,264 273,263.5C 273.419,264.672 274.085,265.672 275,266.5C 275.497,263.854 275.664,261.187 275.5,258.5 Z"/></g>
<g><path style="opacity:1" fill="#a3a3a4" d="M 385.5,175.5 C 386.167,175.5 386.833,175.5 387.5,175.5C 405.498,231.484 416.832,288.818 421.5,347.5C 421.167,347.5 420.833,347.5 420.5,347.5C 420.223,343.115 419.223,339.115 417.5,335.5C 414.082,289.57 405.749,244.57 392.5,200.5C 390.922,192.503 388.589,184.837 385.5,177.5C 385.5,176.833 385.5,176.167 385.5,175.5 Z"/></g>
<g><path style="opacity:1" fill="#c7b170" d="M 167.5,259.5 C 168.529,261.948 169.196,264.614 169.5,267.5C 169.36,269.03 168.693,270.03 167.5,270.5C 166.522,270.189 165.855,269.522 165.5,268.5C 166.815,266.801 166.815,265.135 165.5,263.5C 167.176,262.817 167.843,261.483 167.5,259.5 Z"/></g>
<g><path style="opacity:1" fill="#ada4a1" d="M 275.5,241.5 C 277.843,256.6 279.176,271.933 279.5,287.5C 277.728,285.71 275.728,284.377 273.5,283.5C 274.833,283.5 276.167,283.5 277.5,283.5C 277.434,274.971 276.767,266.638 275.5,258.5C 275.762,257.022 275.429,255.689 274.5,254.5C 269.572,257.03 264.572,257.697 259.5,256.5C 260.167,256.5 260.5,256.167 260.5,255.5C 264.98,255.732 269.313,255.065 273.5,253.5C 274.474,251.257 274.808,248.924 274.5,246.5C 275.451,245.081 275.784,243.415 275.5,241.5 Z"/></g>
<g><path style="opacity:1" fill="#19130d" d="M 165.5,263.5 C 166.815,265.135 166.815,266.801 165.5,268.5C 165.855,269.522 166.522,270.189 167.5,270.5C 167.5,271.5 167.5,272.5 167.5,273.5C 164.261,273.413 161.261,274.08 158.5,275.5C 158.357,273.738 158.691,272.071 159.5,270.5C 156.985,269.8 156.318,268.467 157.5,266.5C 158.533,265.548 159.7,265.548 161,266.5C 162.123,264.9 163.623,263.9 165.5,263.5 Z"/></g>
<g><path style="opacity:1" fill="#e8e8ea" d="M 374.5,327.5 C 374.5,319.5 374.5,311.5 374.5,303.5C 375.945,293.705 376.611,283.705 376.5,273.5C 376.242,252.699 374.742,232.032 372,211.5C 379.556,250.189 380.389,288.856 374.5,327.5 Z"/></g>
<g><path style="opacity:1" fill="#f9f8f8" d="M 138.5,255.5 C 140.167,255.5 141.833,255.5 143.5,255.5C 143.5,256.5 143.5,257.5 143.5,258.5C 142.167,258.5 140.833,258.5 139.5,258.5C 139.216,260.415 139.549,262.081 140.5,263.5C 142.401,268.302 145.068,272.636 148.5,276.5C 149.075,278.411 150.075,280.078 151.5,281.5C 151.013,282.473 150.513,283.473 150,284.5C 143.882,284.032 137.548,283.365 131,282.5C 129.5,282.833 128,283.167 126.5,283.5C 127.326,284.451 127.492,285.451 127,286.5C 124.982,287.223 123.148,288.223 121.5,289.5C 118.03,283.835 114.697,278.001 111.5,272C 111.728,271.601 112.062,271.435 112.5,271.5C 115.723,273.364 118.89,275.364 122,277.5C 122.028,275.213 121.195,273.213 119.5,271.5C 119.491,269.692 119.991,268.025 121,266.5C 125.832,261.759 131.165,257.759 137,254.5C 137.383,255.056 137.883,255.389 138.5,255.5 Z"/></g>
<g><path style="opacity:1" fill="#f5d17d" d="M 167.5,259.5 C 167.843,261.483 167.176,262.817 165.5,263.5C 163.623,263.9 162.123,264.9 161,266.5C 159.7,265.548 158.533,265.548 157.5,266.5C 156.318,268.467 156.985,269.8 159.5,270.5C 158.691,272.071 158.357,273.738 158.5,275.5C 157.593,277.657 156.927,279.99 156.5,282.5C 153.21,280.876 150.543,278.543 148.5,275.5C 147.695,273.085 146.695,270.751 145.5,268.5C 144.833,265.167 144.167,261.833 143.5,258.5C 143.5,257.5 143.5,256.5 143.5,255.5C 143.5,254.167 143.5,252.833 143.5,251.5C 147.012,252.566 147.346,254.399 144.5,257C 144.63,258.059 145.13,258.892 146,259.5C 146.893,258.289 147.726,258.289 148.5,259.5C 147.253,261.042 147.253,262.542 148.5,264C 152.179,263.852 155.845,263.352 159.5,262.5C 159.635,259.583 158.968,256.916 157.5,254.5C 158.758,251.039 161.091,250.039 164.5,251.5C 165.513,254.188 166.513,256.854 167.5,259.5 Z"/></g>
<g><path style="opacity:1" fill="#161009" d="M 154.5,251.5 C 155.167,251.5 155.833,251.5 156.5,251.5C 157.404,252.209 157.737,253.209 157.5,254.5C 157.676,256.675 157.676,259.008 157.5,261.5C 156.707,261.069 155.873,260.735 155,260.5C 153.832,261.509 152.665,262.509 151.5,263.5C 149.31,262.252 148.977,260.586 150.5,258.5C 148.244,257.579 147.244,255.912 147.5,253.5C 148.167,253.5 148.833,253.5 149.5,253.5C 152.09,255.255 153.757,254.588 154.5,251.5 Z"/></g>
<g><path style="opacity:1" fill="#918e77" d="M 154.5,251.5 C 153.757,254.588 152.09,255.255 149.5,253.5C 150.93,252.463 152.597,251.796 154.5,251.5 Z"/></g>
<g><path style="opacity:1" fill="#5b5b5b" d="M 235.5,275.5 C 234.127,275.343 232.793,275.51 231.5,276C 241.291,277.722 250.958,278.222 260.5,277.5C 262.099,277.232 263.432,277.566 264.5,278.5C 260.828,279.045 261.162,279.378 265.5,279.5C 264.779,285.949 263.112,292.116 260.5,298C 249.464,301.401 238.464,304.901 227.5,308.5C 227.463,298.02 227.463,287.687 227.5,277.5C 227.5,276.5 227.5,275.5 227.5,274.5C 230.385,274.194 233.052,274.527 235.5,275.5 Z"/></g>
<g><path style="opacity:1" fill="#423b39" d="M 235.5,275.5 C 243.824,276.276 252.157,276.943 260.5,277.5C 250.958,278.222 241.291,277.722 231.5,276C 232.793,275.51 234.127,275.343 235.5,275.5 Z"/></g>
<g><path style="opacity:1" fill="#919092" d="M 324.5,267.5 C 324.989,272.897 325.656,278.231 326.5,283.5C 325.391,290.871 325.724,298.204 327.5,305.5C 327.5,305.833 327.5,306.167 327.5,306.5C 326.833,306.5 326.167,306.5 325.5,306.5C 324.501,294.191 323.835,281.857 323.5,269.5C 323.328,268.508 323.662,267.842 324.5,267.5 Z"/></g>
<g><path style="opacity:1" fill="#f8eccd" d="M 167.5,273.5 C 168.646,276.504 168.313,279.504 166.5,282.5C 163.015,283.59 159.681,283.59 156.5,282.5C 156.927,279.99 157.593,277.657 158.5,275.5C 161.261,274.08 164.261,273.413 167.5,273.5 Z"/></g>
<g><path style="opacity:1" fill="#5a5a5a" d="M 199.5,273.5 C 202.786,274.207 206.119,274.54 209.5,274.5C 215.291,275.979 221.291,276.979 227.5,277.5C 227.217,278.289 226.717,278.956 226,279.5C 225.252,288.987 223.752,298.32 221.5,307.5C 216.539,309.489 211.539,311.489 206.5,313.5C 204.173,312.275 203.006,310.275 203,307.5C 201.065,296.25 199.898,284.917 199.5,273.5 Z"/></g>
<g><path style="opacity:1" fill="#e7e7e7" d="M 107.5,269.5 C 108.492,269.328 109.158,269.662 109.5,270.5C 111.971,275.442 114.471,280.442 117,285.5C 117.667,286.833 117.667,288.167 117,289.5C 112.148,283.799 108.315,277.466 105.5,270.5C 105.957,269.702 106.624,269.369 107.5,269.5 Z"/></g>
<g><path style="opacity:1" fill="#897a69" d="M 148.5,275.5 C 150.543,278.543 153.21,280.876 156.5,282.5C 159.681,283.59 163.015,283.59 166.5,282.5C 161.23,286.783 156.23,286.449 151.5,281.5C 150.075,280.078 149.075,278.411 148.5,276.5C 148.5,276.167 148.5,275.833 148.5,275.5 Z"/></g>
<g><path style="opacity:1" fill="#dddddd" d="M 385.5,177.5 C 388.589,184.837 390.922,192.503 392.5,200.5C 391.876,200.917 391.543,201.584 391.5,202.5C 394.214,218.764 396.381,235.097 398,251.5C 401.1,281.897 399.6,311.897 393.5,341.5C 393.768,339.901 393.434,338.568 392.5,337.5C 396.675,313.021 398.175,288.354 397,263.5C 395.127,234.514 391.294,205.847 385.5,177.5 Z"/></g>
<g><path style="opacity:1" fill="#595959" d="M 266.5,278.5 C 267.131,282.331 269.465,283.998 273.5,283.5C 275.728,284.377 277.728,285.71 279.5,287.5C 279.5,290.833 279.5,294.167 279.5,297.5C 279.5,299.5 279.5,301.5 279.5,303.5C 278.683,301.031 278.183,298.365 278,295.5C 276.36,299.392 275.027,303.392 274,307.5C 266.583,310.79 259.083,313.957 251.5,317C 250.565,319.381 250.232,321.881 250.5,324.5C 248.167,324.5 245.833,324.5 243.5,324.5C 243.335,321.482 243.502,318.482 244,315.5C 250.333,311.833 256.667,308.167 263,304.5C 264.929,295.926 266.096,287.259 266.5,278.5 Z"/></g>
<g><path style="opacity:1" fill="#a0a0a2" d="M 354.5,164.5 C 359.959,189.901 364.792,215.568 369,241.5C 372.353,262.034 374.187,282.7 374.5,303.5C 373.833,312.167 373.167,320.833 372.5,329.5C 373.02,278.331 367.353,227.997 355.5,178.5C 354.683,176.031 354.183,173.365 354,170.5C 353.617,171.056 353.117,171.389 352.5,171.5C 352.557,170.391 352.89,169.391 353.5,168.5C 354.434,167.432 354.768,166.099 354.5,164.5 Z"/></g>
<g><path style="opacity:1" fill="#f7dfe0" d="M 174.5,287.5 C 169.536,292.965 164.37,298.298 159,303.5C 158.51,304.793 158.343,306.127 158.5,307.5C 156.77,308.026 155.436,309.026 154.5,310.5C 153.5,310.5 152.5,310.5 151.5,310.5C 146.155,308.166 140.821,305.832 135.5,303.5C 139.104,300.402 143.104,297.902 147.5,296C 154.07,294.6 160.404,292.6 166.5,290C 165.262,290.077 164.262,289.911 163.5,289.5C 164.025,288.808 164.692,288.308 165.5,288C 168.482,287.502 171.482,287.335 174.5,287.5 Z"/></g>
<g><path style="opacity:1" fill="#929293" d="M 117.5,294.5 C 116.761,294.369 116.094,294.536 115.5,295C 116.729,296.529 118.229,297.696 120,298.5C 120.605,300.635 120.105,300.969 118.5,299.5C 115.521,297.188 112.854,294.521 110.5,291.5C 113.269,291.04 115.602,292.04 117.5,294.5 Z"/></g>
<g><path style="opacity:1" fill="#5a5959" d="M 182.5,288.5 C 180.677,289.493 179.344,290.993 178.5,293C 179.91,303.632 181.91,314.132 184.5,324.5C 177.011,325.656 169.345,325.822 161.5,325C 160.982,318.989 159.982,313.156 158.5,307.5C 158.343,306.127 158.51,304.793 159,303.5C 164.37,298.298 169.536,292.965 174.5,287.5C 175.482,286.859 176.482,286.193 177.5,285.5C 178.94,286.952 180.606,287.952 182.5,288.5 Z"/></g>
<g><path style="opacity:1" fill="#2e2b2f" d="M 326.5,283.5 C 330.853,286.854 334.52,290.854 337.5,295.5C 334.479,299.188 331.146,302.521 327.5,305.5C 325.724,298.204 325.391,290.871 326.5,283.5 Z"/></g>
<g><path style="opacity:1" fill="#b4b4b5" d="M 52.5,143.5 C 52.2155,145.415 52.5489,147.081 53.5,148.5C 50.6737,169.051 49.1737,189.718 49,210.5C 48.3333,254.833 48.3333,299.167 49,343.5C 49.1509,366.541 50.1509,389.541 52,412.5C 53.3333,418.5 54.6667,424.5 56,430.5C 56.8445,434.229 58.3445,437.563 60.5,440.5C 61.4412,442.466 62.4412,444.466 63.5,446.5C 62.6446,447.293 61.8113,446.96 61,445.5C 54.3632,432.681 50.3632,419.014 49,404.5C 46.6286,341.521 45.962,278.521 47,215.5C 46.6688,191.181 48.5021,167.181 52.5,143.5 Z"/></g>
<g><path style="opacity:1" fill="#bebcc8" d="M 117.5,294.5 C 119.495,296.64 121.995,297.973 125,298.5C 125.464,297.906 125.631,297.239 125.5,296.5C 126.376,296.369 127.043,296.702 127.5,297.5C 126.873,298.417 126.539,299.417 126.5,300.5C 124.137,303.549 122.137,306.882 120.5,310.5C 119.833,307.5 119.167,304.5 118.5,301.5C 118.5,300.833 118.5,300.167 118.5,299.5C 120.105,300.969 120.605,300.635 120,298.5C 118.229,297.696 116.729,296.529 115.5,295C 116.094,294.536 116.761,294.369 117.5,294.5 Z"/></g>
<g><path style="opacity:1" fill="#5b5a5b" d="M 126.5,300.5 C 129.402,301.784 132.402,302.784 135.5,303.5C 140.821,305.832 146.155,308.166 151.5,310.5C 152.462,317.412 152.795,324.412 152.5,331.5C 148.214,330.293 143.88,329.293 139.5,328.5C 133.978,327.076 128.645,325.076 123.5,322.5C 122.893,322.624 122.56,322.957 122.5,323.5C 121.609,322.89 120.609,322.557 119.5,322.5C 119.167,322.5 118.833,322.5 118.5,322.5C 116.27,320.465 115.937,318.132 117.5,315.5C 118.64,313.955 119.64,312.288 120.5,310.5C 122.137,306.882 124.137,303.549 126.5,300.5 Z"/></g>
<g><path style="opacity:1" fill="#ededed" d="M 117.5,315.5 C 115.937,318.132 116.27,320.465 118.5,322.5C 118.5,340.833 118.5,359.167 118.5,377.5C 118.663,379.857 118.497,382.19 118,384.5C 113.668,390.166 110.668,396.499 109,403.5C 106.192,414.683 104.358,426.016 103.5,437.5C 103.587,440.598 103.087,440.932 102,438.5C 98.3497,421.366 96.3497,404.033 96,386.5C 95.3333,360.5 95.3333,334.5 96,308.5C 97.3129,309.573 98.8129,310.24 100.5,310.5C 105.993,308.557 111.327,306.224 116.5,303.5C 117.491,307.445 117.824,311.445 117.5,315.5 Z"/></g>
<g><path style="opacity:1" fill="#59595a" d="M 158.5,307.5 C 158.603,313.861 159.103,320.194 160,326.5C 167.21,329.521 174.377,332.687 181.5,336C 183.385,339.609 185.385,343.109 187.5,346.5C 185.965,347.788 184.299,347.788 182.5,346.5C 181.288,343.698 179.621,341.198 177.5,339C 170.527,336.675 163.527,334.508 156.5,332.5C 155.065,325.285 154.398,317.951 154.5,310.5C 155.436,309.026 156.77,308.026 158.5,307.5 Z"/></g>
<g><path style="opacity:1" fill="#9c945b" d="M 273.5,315.5 C 275.265,314.539 277.265,314.205 279.5,314.5C 279.737,315.791 279.404,316.791 278.5,317.5C 277.448,315.744 275.781,315.077 273.5,315.5 Z"/></g>
<g><path style="opacity:1" fill="#c5c4d4" d="M 54.5,271.5 C 55.3544,278.015 56.1877,284.681 57,291.5C 57.4974,288.854 57.6641,286.187 57.5,283.5C 58.4767,286.287 58.81,289.287 58.5,292.5C 57.3992,304.685 60.7325,315.685 68.5,325.5C 72.0438,328.448 76.0438,329.948 80.5,330C 74.7531,327.921 70.5864,324.088 68,318.5C 64.4261,308.401 63.2594,298.068 64.5,287.5C 68.2709,297.54 73.9376,306.373 81.5,314C 82.5,314.5 83.5,315 84.5,315.5C 85.463,315.03 85.463,314.363 84.5,313.5C 85.2389,313.631 85.9056,313.464 86.5,313C 81.4311,307.456 78.9311,300.956 79,293.5C 83.3658,298.201 88.0325,302.534 93,306.5C 92.9441,342.87 93.9441,379.203 96,415.5C 97.5041,424.201 99.1707,432.868 101,441.5C 102.429,446.278 104.596,450.611 107.5,454.5C 108.833,456.5 110.167,458.5 111.5,460.5C 108.5,460.5 105.5,460.5 102.5,460.5C 99.9906,459.079 97.6572,457.412 95.5,455.5C 74.7722,439.726 63.1055,418.726 60.5,392.5C 59.5,392.5 58.5,392.5 57.5,392.5C 56.0518,352.181 55.0518,311.848 54.5,271.5 Z"/></g>
<g><path style="opacity:1" fill="#29252a" d="M 199.5,273.5 C 199.898,284.917 201.065,296.25 203,307.5C 203.006,310.275 204.173,312.275 206.5,313.5C 211.539,311.489 216.539,309.489 221.5,307.5C 223.752,298.32 225.252,288.987 226,279.5C 226.717,278.956 227.217,278.289 227.5,277.5C 227.463,287.687 227.463,298.02 227.5,308.5C 238.464,304.901 249.464,301.401 260.5,298C 263.112,292.116 264.779,285.949 265.5,279.5C 261.162,279.378 260.828,279.045 264.5,278.5C 265.167,278.5 265.833,278.5 266.5,278.5C 266.096,287.259 264.929,295.926 263,304.5C 256.667,308.167 250.333,311.833 244,315.5C 243.502,318.482 243.335,321.482 243.5,324.5C 242.761,324.369 242.094,324.536 241.5,325C 242.309,332.381 243.642,339.714 245.5,347C 243.017,352.157 240.517,357.324 238,362.5C 237.682,360.939 236.849,359.772 235.5,359C 236.731,357.817 236.731,356.651 235.5,355.5C 231.98,359.186 228.647,363.019 225.5,367C 226.056,367.383 226.389,367.883 226.5,368.5C 225.107,369.26 223.607,369.926 222,370.5C 217.366,368.936 212.866,366.936 208.5,364.5C 207.481,366.951 207.481,369.451 208.5,372C 208.167,372.833 207.833,373.667 207.5,374.5C 206.893,374.376 206.56,374.043 206.5,373.5C 199.951,356.741 192.617,340.407 184.5,324.5C 181.91,314.132 179.91,303.632 178.5,293C 179.344,290.993 180.677,289.493 182.5,288.5C 187.864,283.135 193.531,278.135 199.5,273.5 Z"/></g>
<g><path style="opacity:1" fill="#a09d9e" d="M 279.5,297.5 C 280.833,313.5 280.833,329.5 279.5,345.5C 279.5,336.5 279.5,327.5 279.5,318.5C 278.5,318.5 277.5,318.5 276.5,318.5C 276.842,317.662 277.508,317.328 278.5,317.5C 279.404,316.791 279.737,315.791 279.5,314.5C 279.5,310.833 279.5,307.167 279.5,303.5C 279.5,301.5 279.5,299.5 279.5,297.5 Z"/></g>
<g><path style="opacity:1" fill="#9a99a3" d="M 84.5,313.5 C 85.463,314.363 85.463,315.03 84.5,315.5C 83.5,315 82.5,314.5 81.5,314C 73.9376,306.373 68.2709,297.54 64.5,287.5C 63.2594,298.068 64.4261,308.401 68,318.5C 70.5864,324.088 74.7531,327.921 80.5,330C 76.0438,329.948 72.0438,328.448 68.5,325.5C 60.7325,315.685 57.3992,304.685 58.5,292.5C 59.3037,302.017 61.8037,311.017 66,319.5C 64.3584,311.988 63.0251,304.322 62,296.5C 61.1689,289.476 61.3356,282.476 62.5,275.5C 66.0368,287.283 71.2035,298.283 78,308.5C 79.7772,310.79 81.9438,312.457 84.5,313.5 Z"/></g>
<g><path style="opacity:1" fill="#9d9da5" d="M 118.5,301.5 C 119.167,304.5 119.833,307.5 120.5,310.5C 119.64,312.288 118.64,313.955 117.5,315.5C 117.824,311.445 117.491,307.445 116.5,303.5C 111.327,306.224 105.993,308.557 100.5,310.5C 98.8129,310.24 97.3129,309.573 96,308.5C 95.3333,334.5 95.3333,360.5 96,386.5C 96.3497,404.033 98.3497,421.366 102,438.5C 103.087,440.932 103.587,440.598 103.5,437.5C 104.321,440.641 104.821,443.975 105,447.5C 105.612,450.115 107.112,451.781 109.5,452.5C 108.833,453.167 108.167,453.833 107.5,454.5C 104.596,450.611 102.429,446.278 101,441.5C 99.1707,432.868 97.5041,424.201 96,415.5C 93.9441,379.203 92.9441,342.87 93,306.5C 88.0325,302.534 83.3658,298.201 79,293.5C 78.9311,300.956 81.4311,307.456 86.5,313C 85.9056,313.464 85.2389,313.631 84.5,313.5C 78.6769,304.791 75.0102,295.458 73.5,285.5C 81.2615,294.765 90.0949,302.765 100,309.5C 106.133,306.734 112.299,304.068 118.5,301.5 Z"/></g>
<g><path style="opacity:1" fill="#3c3a3f" d="M 158.5,307.5 C 159.982,313.156 160.982,318.989 161.5,325C 169.345,325.822 177.011,325.656 184.5,324.5C 192.617,340.407 199.951,356.741 206.5,373.5C 204.95,372.559 203.284,371.893 201.5,371.5C 201.5,370.167 200.833,369.5 199.5,369.5C 197.976,366.926 196.642,364.259 195.5,361.5C 195.938,361.565 196.272,361.399 196.5,361C 193.6,356.019 190.6,351.185 187.5,346.5C 185.385,343.109 183.385,339.609 181.5,336C 174.377,332.687 167.21,329.521 160,326.5C 159.103,320.194 158.603,313.861 158.5,307.5 Z"/></g>
<g><path style="opacity:1" fill="#282427" d="M 279.5,303.5 C 279.5,307.167 279.5,310.833 279.5,314.5C 277.265,314.205 275.265,314.539 273.5,315.5C 261.036,320.096 256.87,328.762 261,341.5C 264.547,348.024 270.047,351.024 277.5,350.5C 278.461,352.265 278.795,354.265 278.5,356.5C 278.806,359.385 278.473,362.052 277.5,364.5C 277.5,363.167 277.5,361.833 277.5,360.5C 272.348,360.802 268.014,359.135 264.5,355.5C 263.41,354.391 263.41,353.391 264.5,352.5C 268.002,354.262 271.668,354.762 275.5,354C 264.151,353.261 257.317,347.428 255,336.5C 254.901,341.983 252.067,344.316 246.5,343.5C 245.256,337.216 244.256,330.883 243.5,324.5C 245.833,324.5 248.167,324.5 250.5,324.5C 250.232,321.881 250.565,319.381 251.5,317C 259.083,313.957 266.583,310.79 274,307.5C 275.027,303.392 276.36,299.392 278,295.5C 278.183,298.365 278.683,301.031 279.5,303.5 Z"/></g>
<g><path style="opacity:1" fill="#8f8f93" d="M 374.5,303.5 C 374.5,311.5 374.5,319.5 374.5,327.5C 374.163,343.876 373.163,360.209 371.5,376.5C 372.833,376.5 374.167,376.5 375.5,376.5C 378.267,376.858 380.933,377.525 383.5,378.5C 392.533,382.7 399.033,389.366 403,398.5C 403.529,395.053 404.362,391.719 405.5,388.5C 406.117,388.389 406.617,388.056 407,387.5C 407.497,390.146 407.664,392.813 407.5,395.5C 407.5,396.167 407.5,396.833 407.5,397.5C 406.732,396.737 406.232,395.737 406,394.5C 405.167,397 404.333,399.5 403.5,402C 404.822,405.531 405.822,409.031 406.5,412.5C 406.263,416.273 406.763,419.94 408,423.5C 414.217,412.681 417.717,401.014 418.5,388.5C 420.219,375.04 420.886,361.374 420.5,347.5C 420.833,347.5 421.167,347.5 421.5,347.5C 422.955,362.216 422.455,376.882 420,391.5C 418.587,404.072 414.587,415.739 408,426.5C 407.5,437.828 407.333,449.162 407.5,460.5C 406.833,460.5 406.167,460.5 405.5,460.5C 405.667,445.496 405.5,430.496 405,415.5C 404.337,403.011 399.503,392.511 390.5,384C 387.446,381.806 384.112,380.139 380.5,379C 365.969,378.069 351.469,376.902 337,375.5C 335.02,376.315 333.52,377.648 332.5,379.5C 330.707,381.426 329.707,383.759 329.5,386.5C 329.5,386.833 329.5,387.167 329.5,387.5C 327.958,388.301 326.292,388.634 324.5,388.5C 324.425,393.952 323.591,399.286 322,404.5C 321.517,403.552 321.351,402.552 321.5,401.5C 322.316,393.455 323.316,385.455 324.5,377.5C 324.94,375.156 325.94,373.156 327.5,371.5C 332.508,373.582 337.842,374.749 343.5,375C 352.16,375.5 360.827,375.666 369.5,375.5C 371.101,360.218 372.101,344.885 372.5,329.5C 373.167,320.833 373.833,312.167 374.5,303.5 Z"/></g>
<g><path style="opacity:1" fill="#28242a" d="M 139.5,328.5 C 144.028,330.404 148.694,332.237 153.5,334C 162.228,344.625 169.561,356.125 175.5,368.5C 172.427,367.801 169.427,366.801 166.5,365.5C 165.335,366.86 165.668,367.86 167.5,368.5C 167.5,368.833 167.5,369.167 167.5,369.5C 161.094,366.252 154.428,363.585 147.5,361.5C 144.92,359.424 141.92,358.091 138.5,357.5C 137.702,357.043 137.369,356.376 137.5,355.5C 138.404,354.791 138.737,353.791 138.5,352.5C 137.5,352.5 136.5,352.5 135.5,352.5C 131.445,342.721 127.111,333.055 122.5,323.5C 122.56,322.957 122.893,322.624 123.5,322.5C 128.645,325.076 133.978,327.076 139.5,328.5 Z"/></g>
<g><path style="opacity:1" fill="#2e272a" d="M 276.5,318.5 C 277.5,318.5 278.5,318.5 279.5,318.5C 279.5,327.5 279.5,336.5 279.5,345.5C 279.5,345.833 279.5,346.167 279.5,346.5C 279.167,346.5 278.833,346.5 278.5,346.5C 264.946,345.431 260.446,338.431 265,325.5C 267.745,321.233 271.578,318.899 276.5,318.5 Z"/></g>
<g><path style="opacity:1" fill="#e3d083" d="M 273.5,315.5 C 275.781,315.077 277.448,315.744 278.5,317.5C 277.508,317.328 276.842,317.662 276.5,318.5C 271.578,318.899 267.745,321.233 265,325.5C 260.446,338.431 264.946,345.431 278.5,346.5C 278.567,347.959 278.234,349.292 277.5,350.5C 270.047,351.024 264.547,348.024 261,341.5C 256.87,328.762 261.036,320.096 273.5,315.5 Z"/></g>
<g><path style="opacity:1" fill="#1d1c1d" d="M 243.5,324.5 C 244.256,330.883 245.256,337.216 246.5,343.5C 252.067,344.316 254.901,341.983 255,336.5C 257.317,347.428 264.151,353.261 275.5,354C 271.668,354.762 268.002,354.262 264.5,352.5C 263.41,353.391 263.41,354.391 264.5,355.5C 268.014,359.135 272.348,360.802 277.5,360.5C 277.5,361.833 277.5,363.167 277.5,364.5C 277.058,368.154 276.724,371.821 276.5,375.5C 275.209,375.263 274.209,375.596 273.5,376.5C 265.231,380.091 256.898,383.591 248.5,387C 244.812,391.976 240.312,392.81 235,389.5C 234.667,387.5 234.333,385.5 234,383.5C 231.473,378.447 228.973,373.447 226.5,368.5C 226.389,367.883 226.056,367.383 225.5,367C 228.647,363.019 231.98,359.186 235.5,355.5C 236.731,356.651 236.731,357.817 235.5,359C 236.849,359.772 237.682,360.939 238,362.5C 240.517,357.324 243.017,352.157 245.5,347C 243.642,339.714 242.309,332.381 241.5,325C 242.094,324.536 242.761,324.369 243.5,324.5 Z"/></g>
<g><path style="opacity:1" fill="#262429" d="M 156.5,332.5 C 163.527,334.508 170.527,336.675 177.5,339C 179.621,341.198 181.288,343.698 182.5,346.5C 184.299,347.788 185.965,347.788 187.5,346.5C 190.6,351.185 193.6,356.019 196.5,361C 196.272,361.399 195.938,361.565 195.5,361.5C 190.983,362.341 187.317,361.008 184.5,357.5C 183.817,357.863 183.15,358.196 182.5,358.5C 180.616,358.288 179.283,357.288 178.5,355.5C 177.338,353.176 176.171,350.842 175,348.5C 168.924,343.546 162.757,338.713 156.5,334C 155.262,333.31 155.262,332.81 156.5,332.5 Z"/></g>
<g><path style="opacity:1" fill="#3e3b41" d="M 151.5,310.5 C 152.5,310.5 153.5,310.5 154.5,310.5C 154.398,317.951 155.065,325.285 156.5,332.5C 155.262,332.81 155.262,333.31 156.5,334C 162.757,338.713 168.924,343.546 175,348.5C 176.171,350.842 177.338,353.176 178.5,355.5C 179.283,357.288 180.616,358.288 182.5,358.5C 180.656,362.192 178.323,365.525 175.5,368.5C 169.561,356.125 162.228,344.625 153.5,334C 148.694,332.237 144.028,330.404 139.5,328.5C 143.88,329.293 148.214,330.293 152.5,331.5C 152.795,324.412 152.462,317.412 151.5,310.5 Z"/></g>
<g><path style="opacity:1" fill="#bfbecc" d="M 119.5,322.5 C 120.609,322.557 121.609,322.89 122.5,323.5C 127.111,333.055 131.445,342.721 135.5,352.5C 136.5,352.5 137.5,352.5 138.5,352.5C 138.737,353.791 138.404,354.791 137.5,355.5C 134.807,354.448 132.14,353.448 129.5,352.5C 129.172,357.875 129.505,363.208 130.5,368.5C 132.167,369.333 133.833,370.167 135.5,371C 133.934,371.608 132.6,372.442 131.5,373.5C 130.486,374.674 129.153,375.34 127.5,375.5C 124.944,376.543 122.777,378.21 121,380.5C 119.8,361.185 119.3,341.852 119.5,322.5 Z"/></g>
<g><path style="opacity:1" fill="#98948c" d="M 278.5,346.5 C 278.833,346.5 279.167,346.5 279.5,346.5C 279.813,350.042 279.479,353.375 278.5,356.5C 278.795,354.265 278.461,352.265 277.5,350.5C 278.234,349.292 278.567,347.959 278.5,346.5 Z"/></g>
<g><path style="opacity:1" fill="#5a5a5c" d="M 137.5,355.5 C 137.369,356.376 137.702,357.043 138.5,357.5C 141.92,358.091 144.92,359.424 147.5,361.5C 145.985,365.203 144.319,368.869 142.5,372.5C 140.833,371.833 139.167,371.167 137.5,370.5C 136.702,370.957 136.369,371.624 136.5,372.5C 134.883,373.038 133.216,373.371 131.5,373.5C 132.6,372.442 133.934,371.608 135.5,371C 133.833,370.167 132.167,369.333 130.5,368.5C 129.505,363.208 129.172,357.875 129.5,352.5C 132.14,353.448 134.807,354.448 137.5,355.5 Z"/></g>
<g><path style="opacity:1" fill="#88878e" d="M 118.5,322.5 C 118.833,322.5 119.167,322.5 119.5,322.5C 119.3,341.852 119.8,361.185 121,380.5C 122.777,378.21 124.944,376.543 127.5,375.5C 125.138,378.192 122.804,380.859 120.5,383.5C 119.833,381.5 119.167,379.5 118.5,377.5C 118.5,359.167 118.5,340.833 118.5,322.5 Z"/></g>
<g><path style="opacity:1" fill="#dcdbed" d="M 418.5,388.5 C 417.717,401.014 414.217,412.681 408,423.5C 406.763,419.94 406.263,416.273 406.5,412.5C 406.337,407.453 406.671,402.453 407.5,397.5C 407.5,396.833 407.5,396.167 407.5,395.5C 408.328,389.681 408.828,383.681 409,377.5C 410.385,376.449 411.385,375.116 412,373.5C 414.128,366.243 415.961,358.91 417.5,351.5C 417.833,351.667 418.167,351.833 418.5,352C 417.833,360 417.167,368 416.5,376C 418.103,379.983 418.77,384.15 418.5,388.5 Z"/></g>
<g><path style="opacity:1" fill="#474349" d="M 147.5,361.5 C 154.428,363.585 161.094,366.252 167.5,369.5C 167.5,370.5 167.5,371.5 167.5,372.5C 165.399,375.179 163.399,378.012 161.5,381C 159.305,381.409 157.305,380.909 155.5,379.5C 149.265,376.882 142.932,374.548 136.5,372.5C 136.369,371.624 136.702,370.957 137.5,370.5C 139.167,371.167 140.833,371.833 142.5,372.5C 144.319,368.869 145.985,365.203 147.5,361.5 Z"/></g>
<g><path style="opacity:1" fill="#e9e8e9" d="M 195.5,361.5 C 196.642,364.259 197.976,366.926 199.5,369.5C 194.511,370.166 189.344,370.499 184,370.5C 178.256,370.451 172.756,369.784 167.5,368.5C 165.668,367.86 165.335,366.86 166.5,365.5C 169.427,366.801 172.427,367.801 175.5,368.5C 178.323,365.525 180.656,362.192 182.5,358.5C 183.15,358.196 183.817,357.863 184.5,357.5C 187.317,361.008 190.983,362.341 195.5,361.5 Z"/></g>
<g><path style="opacity:1" fill="#bcbcbc" d="M 325.5,306.5 C 326.167,306.5 326.833,306.5 327.5,306.5C 327.5,328.167 327.5,349.833 327.5,371.5C 325.94,373.156 324.94,375.156 324.5,377.5C 325.415,353.849 325.748,330.182 325.5,306.5 Z"/></g>
<g><path style="opacity:1" fill="#cfcedc" d="M 417.5,335.5 C 419.223,339.115 420.223,343.115 420.5,347.5C 420.886,361.374 420.219,375.04 418.5,388.5C 418.77,384.15 418.103,379.983 416.5,376C 417.167,368 417.833,360 418.5,352C 418.167,351.833 417.833,351.667 417.5,351.5C 415.961,358.91 414.128,366.243 412,373.5C 411.385,375.116 410.385,376.449 409,377.5C 408.828,383.681 408.328,389.681 407.5,395.5C 407.664,392.813 407.497,390.146 407,387.5C 406.617,388.056 406.117,388.389 405.5,388.5C 407.242,378.902 408.575,369.236 409.5,359.5C 410.318,362.107 410.818,364.774 411,367.5C 414.15,356.899 416.316,346.232 417.5,335.5 Z"/></g>
<g><path style="opacity:1" fill="#bdbbc7" d="M 392.5,337.5 C 393.434,338.568 393.768,339.901 393.5,341.5C 390.63,353.983 387.296,366.317 383.5,378.5C 380.933,377.525 378.267,376.858 375.5,376.5C 382.6,364.085 388.267,351.085 392.5,337.5 Z"/></g>
<g><path style="opacity:1" fill="#f9f9f9" d="M 136.5,372.5 C 142.932,374.548 149.265,376.882 155.5,379.5C 157.647,382.269 160.314,384.603 163.5,386.5C 164.309,388.071 164.643,389.738 164.5,391.5C 160.008,397.807 156.008,404.474 152.5,411.5C 147.53,421.439 142.53,431.439 137.5,441.5C 136.749,440.624 136.249,439.624 136,438.5C 135.667,441.167 135.333,443.833 135,446.5C 134.005,447.066 133.172,447.733 132.5,448.5C 131.209,448.263 130.209,448.596 129.5,449.5C 124.167,450.167 118.833,450.833 113.5,451.5C 112.325,451.719 111.325,451.386 110.5,450.5C 108.767,447.941 107.267,445.275 106,442.5C 105.931,427.908 107.931,413.574 112,399.5C 114.067,393.695 116.901,388.362 120.5,383.5C 122.804,380.859 125.138,378.192 127.5,375.5C 129.153,375.34 130.486,374.674 131.5,373.5C 133.216,373.371 134.883,373.038 136.5,372.5 Z"/></g>
<g><path style="opacity:1" fill="#fafafa" d="M 405.5,460.5 C 395.5,460.5 385.5,460.5 375.5,460.5C 369.87,459.437 364.203,458.104 358.5,456.5C 358.077,455.735 357.743,454.902 357.5,454C 359.114,450.493 360.28,446.993 361,443.5C 358.026,447.118 355.859,451.118 354.5,455.5C 353.5,455.5 352.5,455.5 351.5,455.5C 350.833,455.5 350.167,455.5 349.5,455.5C 337.251,434.51 330.584,411.843 329.5,387.5C 329.5,387.167 329.5,386.833 329.5,386.5C 338.542,385.437 347.542,383.937 356.5,382C 348.517,382.098 340.517,382.265 332.5,382.5C 332.5,381.5 332.5,380.5 332.5,379.5C 333.52,377.648 335.02,376.315 337,375.5C 351.469,376.902 365.969,378.069 380.5,379C 384.112,380.139 387.446,381.806 390.5,384C 399.503,392.511 404.337,403.011 405,415.5C 405.5,430.496 405.667,445.496 405.5,460.5 Z"/></g>
<g><path style="opacity:1" fill="#c4c3d2" d="M 226.5,368.5 C 228.973,373.447 231.473,378.447 234,383.5C 234.333,385.5 234.667,387.5 235,389.5C 240.312,392.81 244.812,391.976 248.5,387C 256.898,383.591 265.231,380.091 273.5,376.5C 274.139,377.097 274.472,377.93 274.5,379C 273.514,383.955 272.347,388.789 271,393.5C 267.629,392.093 264.129,391.593 260.5,392C 257.833,394.667 255.167,397.333 252.5,400C 252.728,400.399 253.062,400.565 253.5,400.5C 253.047,401.458 252.381,402.292 251.5,403C 245.509,403.499 239.509,403.666 233.5,403.5C 233.167,405.5 232.833,407.5 232.5,409.5C 231.833,409.167 231.167,408.833 230.5,408.5C 231.162,406.53 231.828,404.53 232.5,402.5C 229.389,398.552 225.389,396.052 220.5,395C 206.167,395.03 191.834,395.03 177.5,395C 174.13,392.922 170.463,392.089 166.5,392.5C 168.526,389.482 170.526,386.482 172.5,383.5C 181.657,384.94 190.657,387.106 199.5,390C 202.167,390.667 204.833,390.667 207.5,390C 196.588,387.986 185.921,385.153 175.5,381.5C 178.076,378.213 181.076,375.38 184.5,373C 190.348,372.827 196.015,372.327 201.5,371.5C 203.284,371.893 204.95,372.559 206.5,373.5C 206.56,374.043 206.893,374.376 207.5,374.5C 207.833,373.667 208.167,372.833 208.5,372C 207.481,369.451 207.481,366.951 208.5,364.5C 212.866,366.936 217.366,368.936 222,370.5C 223.607,369.926 225.107,369.26 226.5,368.5 Z"/></g>
<g><path style="opacity:1" fill="#c5c3d1" d="M 326.5,373.5 C 328.96,373.699 331.293,374.365 333.5,375.5C 330.891,379.067 328.557,382.733 326.5,386.5C 326.274,382.297 326.274,377.964 326.5,373.5 Z"/></g>
<g><path style="opacity:1" fill="#c8c6cf" d="M 332.5,379.5 C 332.5,380.5 332.5,381.5 332.5,382.5C 340.517,382.265 348.517,382.098 356.5,382C 347.542,383.937 338.542,385.437 329.5,386.5C 329.707,383.759 330.707,381.426 332.5,379.5 Z"/></g>
<g><path style="opacity:1" fill="#c3c3d1" d="M 167.5,372.5 C 172.511,372.334 177.511,372.501 182.5,373C 178.266,375.732 174.933,379.232 172.5,383.5C 169.473,385.86 166.806,388.527 164.5,391.5C 164.643,389.738 164.309,388.071 163.5,386.5C 160.314,384.603 157.647,382.269 155.5,379.5C 157.305,380.909 159.305,381.409 161.5,381C 163.399,378.012 165.399,375.179 167.5,372.5 Z"/></g>
<g><path style="opacity:1" fill="#9897a4" d="M 167.5,368.5 C 172.756,369.784 178.256,370.451 184,370.5C 189.344,370.499 194.511,370.166 199.5,369.5C 200.833,369.5 201.5,370.167 201.5,371.5C 196.015,372.327 190.348,372.827 184.5,373C 181.076,375.38 178.076,378.213 175.5,381.5C 185.921,385.153 196.588,387.986 207.5,390C 204.833,390.667 202.167,390.667 199.5,390C 190.657,387.106 181.657,384.94 172.5,383.5C 174.933,379.232 178.266,375.732 182.5,373C 177.511,372.501 172.511,372.334 167.5,372.5C 167.5,371.5 167.5,370.5 167.5,369.5C 167.5,369.167 167.5,368.833 167.5,368.5 Z"/></g>
<g><path style="opacity:1" fill="#c6c5ce" d="M 329.5,387.5 C 330.584,411.843 337.251,434.51 349.5,455.5C 347.585,455.784 345.919,455.451 344.5,454.5C 345.552,454.649 346.552,454.483 347.5,454C 336.918,436.593 330.085,417.76 327,397.5C 325.175,412.323 319.841,425.657 311,437.5C 307.562,441.441 303.729,444.775 299.5,447.5C 298.167,447.5 296.833,447.5 295.5,447.5C 310.308,437.485 318.808,423.485 321,405.5C 320.722,406.416 320.222,407.082 319.5,407.5C 319.595,405.214 320.262,403.214 321.5,401.5C 321.351,402.552 321.517,403.552 322,404.5C 323.591,399.286 324.425,393.952 324.5,388.5C 326.292,388.634 327.958,388.301 329.5,387.5 Z"/></g>
<g><path style="opacity:1" fill="#9d9da9" d="M 273.5,376.5 C 274.209,375.596 275.209,375.263 276.5,375.5C 275.537,383.243 274.204,390.909 272.5,398.5C 271.566,397.432 271.232,396.099 271.5,394.5C 264.632,391.795 259.298,393.461 255.5,399.5C 254.833,399.833 254.167,400.167 253.5,400.5C 253.062,400.565 252.728,400.399 252.5,400C 255.167,397.333 257.833,394.667 260.5,392C 264.129,391.593 267.629,392.093 271,393.5C 272.347,388.789 273.514,383.955 274.5,379C 274.472,377.93 274.139,377.097 273.5,376.5 Z"/></g>
<g><path style="opacity:1" fill="#f9f9f9" d="M 166.5,392.5 C 170.463,392.089 174.13,392.922 177.5,395C 191.834,395.03 206.167,395.03 220.5,395C 225.389,396.052 229.389,398.552 232.5,402.5C 231.828,404.53 231.162,406.53 230.5,408.5C 222.519,414.81 214.519,421.143 206.5,427.5C 206.167,428.167 205.833,428.833 205.5,429.5C 206.652,432.965 207.985,436.298 209.5,439.5C 186.113,441.673 162.779,444.34 139.5,447.5C 138.427,446.749 138.26,445.749 139,444.5C 143.603,434.184 148.103,423.85 152.5,413.5C 156.905,406.365 161.572,399.365 166.5,392.5 Z"/></g>
<g><path style="opacity:1" fill="#f9f9f9" d="M 247.5,441.5 C 243.818,441.665 240.152,441.499 236.5,441C 236.167,440.667 235.833,440.333 235.5,440C 236.381,439.292 237.047,438.458 237.5,437.5C 240.089,436.581 242.089,434.914 243.5,432.5C 239.549,424.933 235.883,417.266 232.5,409.5C 232.833,407.5 233.167,405.5 233.5,403.5C 239.509,403.666 245.509,403.499 251.5,403C 252.381,402.292 253.047,401.458 253.5,400.5C 254.167,400.167 254.833,399.833 255.5,399.5C 260.308,397.758 265.308,397.091 270.5,397.5C 268.107,410.52 263.273,422.52 256,433.5C 253.271,436.399 250.438,439.066 247.5,441.5 Z"/></g>
<g><path style="opacity:1" fill="#b6b6bd" d="M 407.5,397.5 C 406.671,402.453 406.337,407.453 406.5,412.5C 405.822,409.031 404.822,405.531 403.5,402C 404.333,399.5 405.167,397 406,394.5C 406.232,395.737 406.732,396.737 407.5,397.5 Z"/></g>
<g><path style="opacity:1" fill="#909094" d="M 172.5,383.5 C 170.526,386.482 168.526,389.482 166.5,392.5C 161.572,399.365 156.905,406.365 152.5,413.5C 152.5,412.833 152.5,412.167 152.5,411.5C 156.008,404.474 160.008,397.807 164.5,391.5C 166.806,388.527 169.473,385.86 172.5,383.5 Z"/></g>
<g><path style="opacity:1" fill="#bfbec5" d="M 278.5,424.5 C 279.494,421.184 280.494,417.851 281.5,414.5C 281.457,413.584 281.124,412.917 280.5,412.5C 282.816,404.239 284.982,395.906 287,387.5C 287.667,392.167 287.667,396.833 287,401.5C 285.357,406.738 284.024,412.071 283,417.5C 281.974,420.239 280.474,422.572 278.5,424.5 Z"/></g>
<g><path style="opacity:1" fill="#625d55" d="M 230.5,408.5 C 231.167,408.833 231.833,409.167 232.5,409.5C 235.883,417.266 239.549,424.933 243.5,432.5C 242.089,434.914 240.089,436.581 237.5,437.5C 237.44,436.957 237.107,436.624 236.5,436.5C 235.646,437.522 234.646,438.355 233.5,439C 233.957,439.414 234.291,439.914 234.5,440.5C 231.156,441.757 227.823,441.757 224.5,440.5C 223.702,440.957 223.369,441.624 223.5,442.5C 225.674,442.75 227.341,443.75 228.5,445.5C 225.129,449.032 221.295,452.032 217,454.5C 214.826,453.201 213.659,451.201 213.5,448.5C 214.775,445.604 214.775,442.604 213.5,439.5C 218.833,439.5 224.167,439.5 229.5,439.5C 233.08,437.592 236.08,434.926 238.5,431.5C 238.086,429.081 237.086,427.081 235.5,425.5C 234.578,420.989 232.578,416.989 229.5,413.5C 222.196,418.475 215.529,424.142 209.5,430.5C 209.668,432.171 210.335,433.504 211.5,434.5C 212.038,436.117 212.371,437.784 212.5,439.5C 211.5,439.5 210.5,439.5 209.5,439.5C 207.985,436.298 206.652,432.965 205.5,429.5C 205.833,428.833 206.167,428.167 206.5,427.5C 214.519,421.143 222.519,414.81 230.5,408.5 Z"/></g>
<g><path style="opacity:1" fill="#f8f8f9" d="M 344.5,454.5 C 329.402,452.572 314.402,450.239 299.5,447.5C 303.729,444.775 307.562,441.441 311,437.5C 319.841,425.657 325.175,412.323 327,397.5C 330.085,417.76 336.918,436.593 347.5,454C 346.552,454.483 345.552,454.649 344.5,454.5 Z"/></g>
<g><path style="opacity:1" fill="#b7b7b9" d="M 118.5,377.5 C 119.167,379.5 119.833,381.5 120.5,383.5C 116.901,388.362 114.067,393.695 112,399.5C 107.931,413.574 105.931,427.908 106,442.5C 107.267,445.275 108.767,447.941 110.5,450.5C 111.325,451.386 112.325,451.719 113.5,451.5C 112.432,452.434 111.099,452.768 109.5,452.5C 107.112,451.781 105.612,450.115 105,447.5C 104.821,443.975 104.321,440.641 103.5,437.5C 104.358,426.016 106.192,414.683 109,403.5C 110.668,396.499 113.668,390.166 118,384.5C 118.497,382.19 118.663,379.857 118.5,377.5 Z"/></g>
<g><path style="opacity:1" fill="#e7e6ec" d="M 319.5,408.5 C 316.347,420.64 310.68,431.473 302.5,441C 301.668,441.688 301.002,441.521 300.5,440.5C 309.104,428.687 313.438,415.687 313.5,401.5C 316.027,390.353 317.86,379.02 319,367.5C 319.667,374.167 319.667,380.833 319,387.5C 317.467,395.147 316.467,402.813 316,410.5C 316.335,407.81 317.501,407.143 319.5,408.5 Z"/></g>
<g><path style="opacity:1" fill="#f2dfa2" d="M 235.5,425.5 C 234.504,425.586 233.671,425.252 233,424.5C 232.432,418.806 230.432,417.806 227,421.5C 226.178,424.117 225.678,426.784 225.5,429.5C 224.503,429.53 223.836,429.03 223.5,428C 224.645,425.801 224.645,423.635 223.5,421.5C 216.657,423.339 212.657,427.672 211.5,434.5C 210.335,433.504 209.668,432.171 209.5,430.5C 215.529,424.142 222.196,418.475 229.5,413.5C 232.578,416.989 234.578,420.989 235.5,425.5 Z"/></g>
<g><path style="opacity:1" fill="#adadaf" d="M 272.5,398.5 C 269.674,414.679 262.674,428.679 251.5,440.5C 250.432,441.434 249.099,441.768 247.5,441.5C 250.438,439.066 253.271,436.399 256,433.5C 263.273,422.52 268.107,410.52 270.5,397.5C 265.308,397.091 260.308,397.758 255.5,399.5C 259.298,393.461 264.632,391.795 271.5,394.5C 271.232,396.099 271.566,397.432 272.5,398.5 Z"/></g>
<g><path style="opacity:1" fill="#fdf3dd" d="M 235.5,425.5 C 235.5,426.833 235.5,428.167 235.5,429.5C 232.5,429.5 229.5,429.5 226.5,429.5C 226.167,429.5 225.833,429.5 225.5,429.5C 225.678,426.784 226.178,424.117 227,421.5C 230.432,417.806 232.432,418.806 233,424.5C 233.671,425.252 234.504,425.586 235.5,425.5 Z"/></g>
<g><path style="opacity:1" fill="#98979e" d="M 280.5,412.5 C 281.124,412.917 281.457,413.584 281.5,414.5C 280.494,417.851 279.494,421.184 278.5,424.5C 275.594,431.981 271.928,438.981 267.5,445.5C 266.167,444.833 264.833,444.167 263.5,443.5C 267.788,443.337 270.121,441.004 270.5,436.5C 272.136,435.251 273.303,433.584 274,431.5C 275.243,428.117 276.243,424.784 277,421.5C 271.866,430.135 264.699,436.468 255.5,440.5C 254.702,440.957 254.369,441.624 254.5,442.5C 252.302,442.591 251.969,441.925 253.5,440.5C 258.528,437.56 263.361,434.226 268,430.5C 272.903,425.032 277.07,419.032 280.5,412.5 Z"/></g>
<g><path style="opacity:1" fill="#f0e0b0" d="M 235.5,425.5 C 237.086,427.081 238.086,429.081 238.5,431.5C 236.08,434.926 233.08,437.592 229.5,439.5C 231.582,437.231 233.582,434.731 235.5,432C 232.322,431.34 229.322,430.507 226.5,429.5C 229.5,429.5 232.5,429.5 235.5,429.5C 235.5,428.167 235.5,426.833 235.5,425.5 Z"/></g>
<g><path style="opacity:1" fill="#f6d879" d="M 225.5,429.5 C 225.833,429.5 226.167,429.5 226.5,429.5C 229.322,430.507 232.322,431.34 235.5,432C 233.582,434.731 231.582,437.231 229.5,439.5C 224.167,439.5 218.833,439.5 213.5,439.5C 213.167,439.5 212.833,439.5 212.5,439.5C 212.371,437.784 212.038,436.117 211.5,434.5C 212.657,427.672 216.657,423.339 223.5,421.5C 224.645,423.635 224.645,425.801 223.5,428C 223.836,429.03 224.503,429.53 225.5,429.5 Z"/></g>
<g><path style="opacity:1" fill="#f4f3f8" d="M 270.5,436.5 C 270.121,441.004 267.788,443.337 263.5,443.5C 262.167,443.5 260.833,443.5 259.5,443.5C 262.468,440.043 265.968,437.043 270,434.5C 270.464,435.094 270.631,435.761 270.5,436.5 Z"/></g>
<g><path style="opacity:1" fill="#9c9aa2" d="M 313.5,401.5 C 313.438,415.687 309.104,428.687 300.5,440.5C 301.002,441.521 301.668,441.688 302.5,441C 310.68,431.473 316.347,420.64 319.5,408.5C 319.5,408.167 319.5,407.833 319.5,407.5C 320.222,407.082 320.722,406.416 321,405.5C 318.808,423.485 310.308,437.485 295.5,447.5C 294.167,447.167 292.833,446.833 291.5,446.5C 291.5,446.167 291.5,445.833 291.5,445.5C 296.118,442.882 299.784,439.216 302.5,434.5C 306.144,429.071 308.311,423.071 309,416.5C 303.75,428.087 295.917,437.587 285.5,445C 286.416,445.278 287.082,445.778 287.5,446.5C 286.041,446.567 284.708,446.234 283.5,445.5C 297.879,433.793 307.879,419.127 313.5,401.5 Z"/></g>
<g><path style="opacity:1" fill="#f1f0f4" d="M 302.5,434.5 C 299.784,439.216 296.118,442.882 291.5,445.5C 291.062,445.565 290.728,445.399 290.5,445C 294.389,440.558 298.389,437.058 302.5,434.5 Z"/></g>
<g><path style="opacity:1" fill="#c7c5d3" d="M 302.5,434.5 C 298.389,437.058 294.389,440.558 290.5,445C 290.728,445.399 291.062,445.565 291.5,445.5C 291.5,445.833 291.5,446.167 291.5,446.5C 290.167,446.5 288.833,446.5 287.5,446.5C 287.082,445.778 286.416,445.278 285.5,445C 295.917,437.587 303.75,428.087 309,416.5C 308.311,423.071 306.144,429.071 302.5,434.5 Z"/></g>
<g><path style="opacity:1" fill="#929199" d="M 57.5,392.5 C 58.5,392.5 59.5,392.5 60.5,392.5C 63.1055,418.726 74.7722,439.726 95.5,455.5C 94.5,455.5 93.5,455.5 92.5,455.5C 77.6995,443.249 67.3661,427.915 61.5,409.5C 61.2311,404.736 59.8978,400.403 57.5,396.5C 57.5,395.167 57.5,393.833 57.5,392.5 Z"/></g>
<g><path style="opacity:1" fill="#c6c4cf" d="M 270.5,436.5 C 270.631,435.761 270.464,435.094 270,434.5C 265.968,437.043 262.468,440.043 259.5,443.5C 257.883,442.962 256.216,442.629 254.5,442.5C 254.369,441.624 254.702,440.957 255.5,440.5C 264.699,436.468 271.866,430.135 277,421.5C 276.243,424.784 275.243,428.117 274,431.5C 273.303,433.584 272.136,435.251 270.5,436.5 Z"/></g>
<g><path style="opacity:1" fill="#b2b1b5" d="M 152.5,411.5 C 152.5,412.167 152.5,412.833 152.5,413.5C 148.103,423.85 143.603,434.184 139,444.5C 138.26,445.749 138.427,446.749 139.5,447.5C 137.393,448.468 135.059,448.802 132.5,448.5C 133.172,447.733 134.005,447.066 135,446.5C 135.333,443.833 135.667,441.167 136,438.5C 136.249,439.624 136.749,440.624 137.5,441.5C 142.53,431.439 147.53,421.439 152.5,411.5 Z"/></g>
<g><path style="opacity:1" fill="#5a5a5a" d="M 209.5,439.5 C 210.5,439.5 211.5,439.5 212.5,439.5C 212.833,439.5 213.167,439.5 213.5,439.5C 214.775,442.604 214.775,445.604 213.5,448.5C 212.809,446.978 211.642,445.978 210,445.5C 197.532,450.038 185.365,455.038 173.5,460.5C 157.5,460.5 141.5,460.5 125.5,460.5C 127.785,456.79 130.452,453.29 133.5,450C 132.207,449.51 130.873,449.343 129.5,449.5C 130.209,448.596 131.209,448.263 132.5,448.5C 135.059,448.802 137.393,448.468 139.5,447.5C 162.779,444.34 186.113,441.673 209.5,439.5 Z"/></g>
<g><path style="opacity:1" fill="#e3cc8e" d="M 223.5,442.5 C 223.804,443.15 224.137,443.817 224.5,444.5C 222.301,447.055 219.634,448.721 216.5,449.5C 214.303,443.076 216.636,440.743 223.5,442.5 Z"/></g>
<g><path style="opacity:1" fill="#5a5a5a" d="M 237.5,437.5 C 237.047,438.458 236.381,439.292 235.5,440C 235.833,440.333 236.167,440.667 236.5,441C 240.152,441.499 243.818,441.665 247.5,441.5C 249.099,441.768 250.432,441.434 251.5,440.5C 252.167,440.5 252.833,440.5 253.5,440.5C 251.969,441.925 252.302,442.591 254.5,442.5C 256.216,442.629 257.883,442.962 259.5,443.5C 260.833,443.5 262.167,443.5 263.5,443.5C 264.833,444.167 266.167,444.833 267.5,445.5C 264.667,449.49 261.001,452.657 256.5,455C 266.284,454.127 275.284,450.961 283.5,445.5C 284.708,446.234 286.041,446.567 287.5,446.5C 288.833,446.5 290.167,446.5 291.5,446.5C 292.833,446.833 294.167,447.167 295.5,447.5C 296.833,447.5 298.167,447.5 299.5,447.5C 314.402,450.239 329.402,452.572 344.5,454.5C 345.919,455.451 347.585,455.784 349.5,455.5C 350.167,455.5 350.833,455.5 351.5,455.5C 353.607,456.468 355.941,456.802 358.5,456.5C 364.203,458.104 369.87,459.437 375.5,460.5C 339.5,460.5 303.5,460.5 267.5,460.5C 262.109,457.126 256.109,455.626 249.5,456C 250.833,455.667 252.167,455.333 253.5,455C 245.383,451.348 237.049,448.182 228.5,445.5C 227.341,443.75 225.674,442.75 223.5,442.5C 223.369,441.624 223.702,440.957 224.5,440.5C 227.823,441.757 231.156,441.757 234.5,440.5C 234.291,439.914 233.957,439.414 233.5,439C 234.646,438.355 235.646,437.522 236.5,436.5C 237.107,436.624 237.44,436.957 237.5,437.5 Z"/></g>
<g><path style="opacity:1" fill="#b9b8b9" d="M 57.5,396.5 C 59.8978,400.403 61.2311,404.736 61.5,409.5C 60.0963,427.432 64.763,443.765 75.5,458.5C 74.9984,459.521 74.3317,459.688 73.5,459C 71.9571,457.122 70.1238,455.622 68,454.5C 67.3333,453.833 67.3333,453.167 68,452.5C 68.8113,453.96 69.6446,454.293 70.5,453.5C 67.4409,448.61 64.7743,443.61 62.5,438.5C 59.8415,424.568 58.1748,410.568 57.5,396.5 Z"/></g>
<g><path style="opacity:1" fill="#f2f2f2" d="M 213.5,448.5 C 213.659,451.201 214.826,453.201 217,454.5C 221.295,452.032 225.129,449.032 228.5,445.5C 237.049,448.182 245.383,451.348 253.5,455C 252.167,455.333 250.833,455.667 249.5,456C 256.109,455.626 262.109,457.126 267.5,460.5C 236.167,460.5 204.833,460.5 173.5,460.5C 185.365,455.038 197.532,450.038 210,445.5C 211.642,445.978 212.809,446.978 213.5,448.5 Z"/></g>
<g><path style="opacity:1" fill="#c1c0c6" d="M 358.5,456.5 C 355.941,456.802 353.607,456.468 351.5,455.5C 352.5,455.5 353.5,455.5 354.5,455.5C 355.859,451.118 358.026,447.118 361,443.5C 360.28,446.993 359.114,450.493 357.5,454C 357.743,454.902 358.077,455.735 358.5,456.5 Z"/></g>
<g><path style="opacity:1" fill="#29252b" d="M 129.5,449.5 C 130.873,449.343 132.207,449.51 133.5,450C 130.452,453.29 127.785,456.79 125.5,460.5C 120.833,460.5 116.167,460.5 111.5,460.5C 110.167,458.5 108.833,456.5 107.5,454.5C 108.167,453.833 108.833,453.167 109.5,452.5C 111.099,452.768 112.432,452.434 113.5,451.5C 118.833,450.833 124.167,450.167 129.5,449.5 Z"/></g>
<g><path style="opacity:1" fill="#2a262c" d="M 92.5,455.5 C 93.5,455.5 94.5,455.5 95.5,455.5C 97.6572,457.412 99.9906,459.079 102.5,460.5C 94.5,460.5 86.5,460.5 78.5,460.5C 79.0577,459.21 80.0577,458.377 81.5,458C 85.1117,456.85 88.7783,456.017 92.5,455.5 Z"/></g>
</svg>
